<svg width="24" height="24" viewBox="0 0 24 24" fill="none" xmlns="http://www.w3.org/2000/svg">
<path d="M11.8226 21L10.8158 20.0914C9.08049 18.5034 7.64802 17.1323 6.51842 15.9782C5.38881 14.824 4.4884 13.7926 3.81719 12.884C3.14598 11.9754 2.67531 11.1528 2.40518 10.4161C2.13506 9.6794 2 8.93452 2 8.18145C2 6.70805 2.49523 5.47613 3.48568 4.48568C4.47613 3.49522 5.69986 3 7.15689 3C8.09004 3 8.95361 3.22101 9.74761 3.66303C10.5416 4.10505 11.2333 4.74352 11.8226 5.57844C12.5102 4.69441 13.2387 4.04366 14.0082 3.62619C14.7776 3.20873 15.6044 3 16.4884 3C17.9454 3 19.1692 3.49522 20.1596 4.48568C21.1501 5.47613 21.6453 6.70805 21.6453 8.18145C21.6453 8.93452 21.5102 9.6794 21.2401 10.4161C20.97 11.1528 20.4993 11.9754 19.8281 12.884C19.1569 13.7926 18.2565 14.824 17.1269 15.9782C15.9973 17.1323 14.5648 18.5034 12.8295 20.0914L11.8226 21ZM11.8226 19.06C13.4761 17.5375 14.839 16.2319 15.9113 15.1432C16.9836 14.0546 17.8349 13.101 18.4652 12.2824C19.0955 11.4638 19.5375 10.7353 19.7913 10.0969C20.045 9.45839 20.1719 8.81992 20.1719 8.18145C20.1719 7.10096 19.8281 6.21282 19.1405 5.51705C18.4529 4.82128 17.5689 4.4734 16.4884 4.4734C15.6535 4.4734 14.8759 4.73124 14.1555 5.24693C13.4352 5.76262 12.854 6.48704 12.412 7.42019H11.2087C10.7831 6.50341 10.2101 5.78308 9.48977 5.25921C8.76944 4.73533 7.99181 4.4734 7.15689 4.4734C6.0764 4.4734 5.19236 4.82128 4.50478 5.51705C3.81719 6.21282 3.4734 7.10096 3.4734 8.18145C3.4734 8.81992 3.60027 9.46248 3.85402 10.1091C4.10778 10.7558 4.5498 11.4925 5.18008 12.3192C5.81037 13.146 6.66576 14.0996 7.74625 15.1801C8.82674 16.2606 10.1855 17.5539 11.8226 19.06Z" fill="#909090"/>
</svg>
