<svg width="20" height="20" viewBox="0 0 20 20" fill="none" xmlns="http://www.w3.org/2000/svg">
<path d="M8.99935 13.7918H5.83268C4.79102 13.7918 3.89879 13.4204 3.15602 12.6777C2.41268 11.9343 2.04102 11.0418 2.04102 10.0002C2.04102 8.9585 2.41268 8.066 3.15602 7.32266C3.89879 6.57988 4.79102 6.2085 5.83268 6.2085H8.99935V7.4585H5.83268C5.13824 7.4585 4.54102 7.7085 4.04102 8.2085C3.54102 8.7085 3.29102 9.30572 3.29102 10.0002C3.29102 10.6946 3.54102 11.2918 4.04102 11.7918C4.54102 12.2918 5.13824 12.5418 5.83268 12.5418H8.99935V13.7918ZM6.87435 10.6252V9.37516H13.1243V10.6252H6.87435ZM10.9993 13.7918V12.5418H14.166C14.8605 12.5418 15.4577 12.2918 15.9577 11.7918C16.4577 11.2918 16.7077 10.6946 16.7077 10.0002C16.7077 9.30572 16.4577 8.7085 15.9577 8.2085C15.4577 7.7085 14.8605 7.4585 14.166 7.4585H10.9993V6.2085H14.166C15.2077 6.2085 16.0999 6.57988 16.8427 7.32266C17.586 8.066 17.9577 8.9585 17.9577 10.0002C17.9577 11.0418 17.586 11.9343 16.8427 12.6777C16.0999 13.4204 15.2077 13.7918 14.166 13.7918H10.9993Z" fill="#2D2D2D"/>
</svg>
