<svg width="24" height="24" viewBox="0 0 24 24" fill="none" xmlns="http://www.w3.org/2000/svg">
<path d="M5.09922 7.22501C4.89922 6.97501 4.74089 6.70401 4.62422 6.41201C4.50755 6.12067 4.44922 5.80834 4.44922 5.47501C4.44922 4.70834 4.71589 4.05834 5.24922 3.52501C5.78255 2.99167 6.43255 2.72501 7.19922 2.72501C7.94922 2.72501 8.59522 2.99167 9.13722 3.52501C9.67855 4.05834 9.94922 4.70834 9.94922 5.47501C9.94922 5.80834 9.89089 6.12067 9.77422 6.41201C9.65755 6.70401 9.49089 6.97501 9.27422 7.22501H5.09922ZM10.0992 21.275C9.09922 21.275 8.24089 20.9167 7.52422 20.2C6.80755 19.4833 6.44922 18.625 6.44922 17.625H5.54922L4.62422 8.27501H9.77422L8.82422 17.625H7.94922C7.94922 18.2083 8.15755 18.7123 8.57422 19.137C8.99089 19.5623 9.49922 19.775 10.0992 19.775C10.6826 19.775 11.1869 19.5623 11.6122 19.137C12.0369 18.7123 12.2492 18.2083 12.2492 17.625V6.37501C12.2492 5.37501 12.6076 4.51667 13.3242 3.80001C14.0409 3.08334 14.8992 2.72501 15.8992 2.72501C16.8992 2.72501 17.7576 3.08334 18.4742 3.80001C19.1909 4.51667 19.5492 5.37501 19.5492 6.37501V21.275H18.0492V6.37501C18.0492 5.79167 17.8409 5.28734 17.4242 4.86201C17.0076 4.43734 16.4992 4.22501 15.8992 4.22501C15.3159 4.22501 14.8116 4.43734 14.3862 4.86201C13.9616 5.28734 13.7492 5.79167 13.7492 6.37501V17.625C13.7492 18.625 13.3909 19.4833 12.6742 20.2C11.9576 20.9167 11.0992 21.275 10.0992 21.275ZM6.89922 16.125H7.47422L8.09922 9.77501H6.27422L6.89922 16.125ZM7.47422 9.77501H6.27422H8.09922H7.47422Z" fill="white"/>
</svg>
