<svg width="32" height="32" viewBox="0 0 32 32" fill="none" xmlns="http://www.w3.org/2000/svg">
<rect width="32" height="32" rx="16" fill="#FDE02B"/>
<path d="M15.6648 26C15.478 26 15.3009 25.9523 15.1521 25.8617L15.1416 25.8553C14.9904 25.7582 14.8723 25.6208 14.7915 25.4477C14.7373 25.3305 14.7001 25.2011 14.6831 25.0636C14.6492 24.7758 14.6928 24.517 14.7308 24.2898C14.7413 24.2259 14.7527 24.1612 14.7607 24.0973C14.785 23.9073 14.7923 23.6938 14.7802 23.4634L14.7761 23.4262C14.7713 23.3777 14.7672 23.3356 14.7607 23.3106L14.7559 23.2911C14.7494 23.2879 14.7405 23.2847 14.7292 23.2814L14.7106 23.275C14.6524 23.2548 14.5634 23.2451 14.4696 23.2345C13.8551 23.1618 13.1362 23.0623 12.4279 22.8715C11.2433 22.5569 10.1048 21.9974 9.04466 21.2106C8.18996 20.5807 7.45816 19.8562 6.86949 19.0572C6.2784 18.2527 5.86439 17.4222 5.63798 16.5886C5.20133 15.0061 5.38569 13.249 6.15791 11.6423C6.83877 10.2248 7.97082 8.95525 9.43037 7.96955C11.143 6.81242 13.1379 6.14855 15.2031 6.0499C17.9329 5.78548 20.7598 6.58035 22.9593 8.23316C24.3849 9.31265 25.4514 10.6638 26.0458 12.142C26.712 13.7867 26.7751 15.6223 26.2172 17.1748C25.8007 18.3352 25.0374 19.4284 23.8164 20.6146C22.1248 22.2594 20.1122 23.5709 18.1965 24.7741C17.5327 25.193 16.927 25.565 16.2494 25.8569C16.1386 25.9062 15.9898 25.966 15.8176 25.9903C15.7659 25.9968 15.7149 26 15.6648 26Z" fill="#1DAFAA"/>
<path d="M12.5455 16.0642H11.1167V12.7585C11.1167 12.444 10.8612 12.1885 10.5466 12.1885C10.2321 12.1885 9.97656 12.444 9.97656 12.7585V16.6342C9.97656 16.9488 10.2321 17.2043 10.5466 17.2043H12.5455C12.8601 17.2043 13.1156 16.9488 13.1156 16.6342C13.1156 16.3189 12.8601 16.0642 12.5455 16.0642Z" fill="#FDE02B"/>
<path d="M14.0505 17.203C13.736 17.203 13.4805 16.9475 13.4805 16.6329V12.7581C13.4805 12.4435 13.736 12.188 14.0505 12.188C14.3651 12.188 14.6206 12.4435 14.6206 12.7581V16.6337C14.6198 16.9483 14.3651 17.203 14.0505 17.203Z" fill="#FDE02B"/>
<path d="M19.388 12.7584C19.388 12.4438 19.1325 12.1883 18.818 12.1883C18.5034 12.1883 18.2479 12.4438 18.2479 12.7584V14.9392L16.3331 12.4139C16.3307 12.4115 16.3283 12.4091 16.3266 12.4058C16.3202 12.3977 16.3129 12.3897 16.3064 12.3816C16.3008 12.3751 16.2951 12.3686 16.2886 12.3622C16.2822 12.3557 16.2757 12.3492 16.2692 12.3428C16.2619 12.3363 16.2547 12.329 16.2474 12.3233C16.2409 12.3177 16.2345 12.3128 16.228 12.308C16.2199 12.3015 16.2118 12.295 16.2037 12.2894C16.1965 12.2845 16.19 12.2805 16.1827 12.2756C16.1746 12.2708 16.1657 12.2651 16.1576 12.2603C16.1496 12.2554 16.1407 12.2514 16.1326 12.2473C16.1245 12.2433 16.1172 12.2393 16.1091 12.236C16.0994 12.232 16.0897 12.2279 16.08 12.2247C16.0727 12.2223 16.0655 12.219 16.0582 12.2166C16.0477 12.2134 16.0372 12.2101 16.0266 12.2077C16.0194 12.2061 16.0121 12.2037 16.004 12.2021C15.9943 12.1996 15.9838 12.198 15.9733 12.1964C15.9652 12.1948 15.9563 12.194 15.9482 12.1924C15.9393 12.1915 15.9296 12.1907 15.9199 12.1899C15.9102 12.1891 15.9005 12.1883 15.89 12.1883C15.8859 12.1883 15.8827 12.1875 15.8787 12.1875C15.8738 12.1875 15.869 12.1883 15.8641 12.1883C15.8536 12.1883 15.8431 12.1891 15.8334 12.1899C15.8245 12.1907 15.8156 12.1915 15.8075 12.1924C15.7978 12.194 15.7881 12.1948 15.7784 12.1964C15.7695 12.198 15.7606 12.1996 15.7517 12.2021C15.7428 12.2045 15.7339 12.2061 15.725 12.2085C15.7153 12.2109 15.7064 12.2142 15.6975 12.2174C15.6895 12.2198 15.6814 12.2231 15.6733 12.2263C15.6636 12.2304 15.6547 12.2336 15.645 12.2384C15.6377 12.2417 15.6304 12.2457 15.6223 12.249C15.6126 12.2538 15.6029 12.2587 15.594 12.2643C15.5876 12.2684 15.5803 12.2724 15.5738 12.2764C15.5641 12.2821 15.5552 12.2886 15.5463 12.295C15.5423 12.2975 15.539 12.2999 15.535 12.3023C15.5326 12.3047 15.5302 12.3072 15.5269 12.3088C15.5188 12.3153 15.5107 12.3217 15.5027 12.329C15.4962 12.3347 15.4897 12.3403 15.4833 12.3468C15.4768 12.3533 15.4703 12.3597 15.4638 12.3662C15.4574 12.3735 15.4501 12.3808 15.4444 12.388C15.4388 12.3945 15.4339 12.401 15.4291 12.4074C15.4226 12.4155 15.4169 12.4236 15.4105 12.4317C15.4056 12.439 15.4016 12.4454 15.3967 12.4527C15.3919 12.4608 15.3862 12.4689 15.3814 12.4778C15.3765 12.4859 15.3725 12.4948 15.3684 12.5029C15.3644 12.5109 15.3603 12.5182 15.3571 12.5263C15.3531 12.536 15.349 12.5457 15.3458 12.5554C15.3434 12.5627 15.3401 12.57 15.3377 12.5773C15.3345 12.5878 15.3312 12.5983 15.3288 12.6088C15.3272 12.6161 15.3248 12.6233 15.3231 12.6306C15.3207 12.6403 15.3191 12.6508 15.3175 12.6613C15.3159 12.6694 15.3143 12.6783 15.3134 12.6864C15.3126 12.6953 15.3118 12.705 15.311 12.7139C15.3102 12.7236 15.3094 12.7341 15.3094 12.7438C15.3094 12.7479 15.3086 12.7511 15.3086 12.7551V16.6308C15.3086 16.9454 15.5641 17.2009 15.8787 17.2009C16.1932 17.2009 16.4487 16.9454 16.4487 16.6308V14.45L18.3635 16.9753C18.3652 16.9777 18.3676 16.9793 18.3692 16.9818C18.3789 16.9939 18.3894 17.006 18.3999 17.0173C18.404 17.0214 18.4072 17.0262 18.4112 17.0303C18.4258 17.0448 18.4404 17.0586 18.4557 17.0715C18.4598 17.0748 18.4646 17.078 18.4687 17.0812C18.4808 17.0901 18.4929 17.0998 18.505 17.1079C18.5115 17.112 18.518 17.116 18.5244 17.12C18.5358 17.1265 18.5471 17.133 18.5592 17.1394C18.5657 17.1427 18.5722 17.1459 18.5786 17.1492C18.5908 17.1548 18.6037 17.1605 18.6166 17.1653C18.6223 17.1677 18.6288 17.1702 18.6344 17.1718C18.649 17.1766 18.6635 17.1807 18.6781 17.1847C18.6829 17.1863 18.6886 17.188 18.6934 17.1888C18.7096 17.192 18.7258 17.1952 18.7428 17.1969C18.7468 17.1977 18.7509 17.1985 18.7549 17.1985C18.7751 17.2009 18.7961 17.2017 18.8172 17.2017H18.818C18.8447 17.2017 18.8713 17.1993 18.8972 17.1952C18.9029 17.1944 18.9085 17.1936 18.915 17.1928C18.9417 17.188 18.9676 17.1823 18.9926 17.1742C18.9959 17.1734 18.9991 17.1718 19.0023 17.171C19.0274 17.1621 19.0525 17.1516 19.0759 17.1403C19.0783 17.1386 19.0808 17.1378 19.0832 17.137C19.1083 17.1233 19.1325 17.1079 19.1552 17.0909C19.1568 17.0893 19.1592 17.0885 19.1616 17.0869C19.1641 17.0853 19.1665 17.0828 19.1689 17.0804C19.1778 17.0739 19.1859 17.0667 19.194 17.0594C19.2004 17.0537 19.2069 17.0481 19.2126 17.0424C19.2199 17.0359 19.2263 17.0287 19.2328 17.0214C19.2393 17.0149 19.2457 17.0076 19.2514 17.0004C19.2571 16.9939 19.2627 16.9866 19.2676 16.9801C19.2732 16.9721 19.2797 16.9648 19.2854 16.9567C19.2902 16.9494 19.2951 16.9421 19.2999 16.9341C19.3048 16.926 19.3096 16.9179 19.3145 16.9098C19.3193 16.9009 19.3234 16.892 19.3282 16.8839C19.3323 16.8766 19.3355 16.8694 19.3387 16.8613C19.3428 16.8516 19.3468 16.8411 19.3508 16.8314C19.3533 16.8241 19.3565 16.8176 19.3589 16.8103C19.3622 16.7998 19.3654 16.7893 19.3678 16.7788C19.3694 16.7715 19.3719 16.7643 19.3735 16.757C19.3759 16.7465 19.3775 16.7368 19.3792 16.7262C19.3808 16.7182 19.3816 16.7093 19.3832 16.7012C19.384 16.6923 19.3848 16.6826 19.3856 16.6737C19.3864 16.664 19.3872 16.6535 19.3872 16.6438C19.3872 16.6397 19.388 16.6365 19.388 16.6324V12.7584Z" fill="#FDE02B"/>
<path d="M22.6119 15.2659C22.9265 15.2659 23.182 15.0104 23.182 14.6958C23.182 14.3813 22.9265 14.1257 22.6119 14.1257H21.1831V13.3276H22.6443C22.9588 13.3276 23.2143 13.0721 23.2143 12.7576C23.2143 12.443 22.9588 12.1875 22.6443 12.1875H20.6454C20.6397 12.1875 20.6349 12.1883 20.6292 12.1883C20.6236 12.1883 20.6187 12.1875 20.613 12.1875C20.2985 12.1875 20.043 12.443 20.043 12.7576V16.6333C20.043 16.9478 20.2985 17.2033 20.613 17.2033H22.6119C22.9265 17.2033 23.182 16.9478 23.182 16.6333C23.182 16.3187 22.9265 16.0632 22.6119 16.0632H21.1831V15.2651H22.6119V15.2659Z" fill="#FDE02B"/>
</svg>
