<svg width="20" height="20" viewBox="0 0 20 20" fill="none" xmlns="http://www.w3.org/2000/svg">
<path d="M9.99935 3.24984C9.56879 3.24984 9.20435 3.10039 8.90602 2.8015C8.60713 2.50317 8.45768 2.13873 8.45768 1.70817C8.45768 1.2915 8.60713 0.930393 8.90602 0.624837C9.20435 0.319282 9.56879 0.166504 9.99935 0.166504C10.4299 0.166504 10.7943 0.319282 11.0927 0.624837C11.3916 0.930393 11.541 1.2915 11.541 1.70817C11.541 2.13873 11.3916 2.50317 11.0927 2.8015C10.7943 3.10039 10.4299 3.24984 9.99935 3.24984ZM7.83268 15.7915V5.58317C6.98546 5.51373 6.14185 5.4165 5.30185 5.2915C4.46129 5.1665 3.66602 5.00678 2.91602 4.81234L3.22852 3.56234C4.28407 3.84012 5.3849 4.03789 6.53102 4.15567C7.67657 4.274 8.83268 4.33317 9.99935 4.33317C11.166 4.33317 12.3224 4.274 13.4685 4.15567C14.6141 4.03789 15.7146 3.84012 16.7702 3.56234L17.0827 4.81234C16.3327 5.00678 15.5377 5.1665 14.6977 5.2915C13.8571 5.4165 13.0132 5.51373 12.166 5.58317V15.7915H10.916V10.7707H9.08268V15.7915H7.83268ZM6.66602 19.8957C6.45768 19.8957 6.28407 19.8262 6.14518 19.6873C6.00629 19.5484 5.93685 19.3748 5.93685 19.1665C5.93685 18.9582 6.00629 18.7846 6.14518 18.6457C6.28407 18.5068 6.45768 18.4373 6.66602 18.4373C6.87435 18.4373 7.04796 18.5068 7.18685 18.6457C7.32574 18.7846 7.39518 18.9582 7.39518 19.1665C7.39518 19.3748 7.32574 19.5484 7.18685 19.6873C7.04796 19.8262 6.87435 19.8957 6.66602 19.8957ZM9.99935 19.8957C9.79102 19.8957 9.6174 19.8262 9.47852 19.6873C9.33963 19.5484 9.27018 19.3748 9.27018 19.1665C9.27018 18.9582 9.33963 18.7846 9.47852 18.6457C9.6174 18.5068 9.79102 18.4373 9.99935 18.4373C10.2077 18.4373 10.3813 18.5068 10.5202 18.6457C10.6591 18.7846 10.7285 18.9582 10.7285 19.1665C10.7285 19.3748 10.6591 19.5484 10.5202 19.6873C10.3813 19.8262 10.2077 19.8957 9.99935 19.8957ZM13.3327 19.8957C13.1243 19.8957 12.9507 19.8262 12.8118 19.6873C12.673 19.5484 12.6035 19.3748 12.6035 19.1665C12.6035 18.9582 12.673 18.7846 12.8118 18.6457C12.9507 18.5068 13.1243 18.4373 13.3327 18.4373C13.541 18.4373 13.7146 18.5068 13.8535 18.6457C13.9924 18.7846 14.0618 18.9582 14.0618 19.1665C14.0618 19.3748 13.9924 19.5484 13.8535 19.6873C13.7146 19.8262 13.541 19.8957 13.3327 19.8957Z" fill="#EC5656"/>
</svg>
