<svg width="32" height="32" viewBox="0 0 32 32" fill="none" xmlns="http://www.w3.org/2000/svg">
<path d="M20.5504 6.89896L20.5504 6.89895C19.1403 6.19975 17.645 5.85 16.0664 5.85C13.2277 5.85 10.8226 6.83172 8.86034 8.79393C6.89813 10.7561 5.91641 13.1613 5.91641 16C5.91641 18.8387 6.89813 21.2439 8.86034 23.2061C10.8226 25.1683 13.2277 26.15 16.0664 26.15C18.3436 26.15 20.3923 25.4615 22.2076 24.0862L22.2077 24.0862C24.0226 22.7106 25.2357 20.9158 25.8443 18.7065L25.8967 18.5167H25.6997H23.5997H23.493L23.458 18.6175C22.9127 20.1881 21.9652 21.4513 20.6129 22.411C19.2609 23.3705 17.7468 23.85 16.0664 23.85C13.8835 23.85 12.0329 23.0877 10.5058 21.5606C8.9787 20.0335 8.21641 18.1829 8.21641 16C8.21641 13.8171 8.9787 11.9665 10.5058 10.4394C12.0329 8.91229 13.8835 8.15 16.0664 8.15C17.5063 8.15 18.8351 8.51525 20.056 9.24604L20.0561 9.24608C21.205 9.93293 22.1219 10.8558 22.808 12.0167H17.7997H17.6497V12.1667V14.1667V14.3167H17.7997H25.9331H26.0831V14.1667V6V5.85H25.9331H23.9331H23.7831V6V9.51851C22.9041 8.40553 21.8262 7.53196 20.5504 6.89896Z" fill="#4B4B4B" stroke="black" stroke-width="0.3"/>
</svg>
