<svg width="18" height="19" viewBox="0 0 18 19" fill="none" xmlns="http://www.w3.org/2000/svg">
<path d="M8.49375 13.3625H9.61875V12.5187H10.5187C10.7062 12.5187 10.8594 12.4438 10.9781 12.2938C11.0969 12.1438 11.1562 11.975 11.1562 11.7875V9.63125C11.1562 9.43125 11.0969 9.25938 10.9781 9.11563C10.8594 8.97188 10.7062 8.9 10.5187 8.9H7.96875V7.60625H11.1562V6.48125H9.61875V5.6375H8.49375V6.48125H7.575C7.3875 6.48125 7.21875 6.55625 7.06875 6.70625C6.91875 6.85625 6.84375 7.03125 6.84375 7.23125V9.36875C6.84375 9.56875 6.91875 9.72812 7.06875 9.84687C7.21875 9.96562 7.3875 10.025 7.575 10.025H10.0312V11.3937H6.84375V12.5187H8.49375V13.3625ZM2.625 15.5C2.325 15.5 2.0625 15.3875 1.8375 15.1625C1.6125 14.9375 1.5 14.675 1.5 14.375V4.625C1.5 4.325 1.6125 4.0625 1.8375 3.8375C2.0625 3.6125 2.325 3.5 2.625 3.5H15.375C15.675 3.5 15.9375 3.6125 16.1625 3.8375C16.3875 4.0625 16.5 4.325 16.5 4.625V14.375C16.5 14.675 16.3875 14.9375 16.1625 15.1625C15.9375 15.3875 15.675 15.5 15.375 15.5H2.625ZM2.625 14.375H15.375V4.625H2.625V14.375Z" fill="#2D2D2D"/>
</svg>
