<svg width="20" height="20" viewBox="0 0 20 20" fill="none" xmlns="http://www.w3.org/2000/svg">
<path d="M6.04167 13.9583H8.95833V11.0417H6.04167V13.9583ZM11.0417 13.9583H13.9583V11.0417H11.0417V13.9583ZM6.04167 8.95833H8.95833V6.04167H6.04167V8.95833ZM11.0417 8.95833H13.9583V6.04167H11.0417V8.95833ZM3.75 17.5C3.41667 17.5 3.125 17.375 2.875 17.125C2.625 16.875 2.5 16.5833 2.5 16.25V3.75C2.5 3.41667 2.625 3.125 2.875 2.875C3.125 2.625 3.41667 2.5 3.75 2.5H16.25C16.5833 2.5 16.875 2.625 17.125 2.875C17.375 3.125 17.5 3.41667 17.5 3.75V16.25C17.5 16.5833 17.375 16.875 17.125 17.125C16.875 17.375 16.5833 17.5 16.25 17.5H3.75ZM3.75 16.25H16.25V3.75H3.75V16.25ZM3.75 3.75V16.25V3.75Z" fill="#2D2D2D"/>
</svg>
