<svg width="18" height="19" viewBox="0 0 18 19" fill="none" xmlns="http://www.w3.org/2000/svg">
<path d="M9 12.9125C10.3 11.8625 11.2812 10.8531 11.9438 9.88437C12.6062 8.91563 12.9375 8.0125 12.9375 7.175C12.9375 6.4375 12.8031 5.8125 12.5344 5.3C12.2656 4.7875 11.9344 4.36875 11.5406 4.04375C11.1469 3.71875 10.7188 3.48437 10.2563 3.34062C9.79375 3.19687 9.375 3.125 9 3.125C8.625 3.125 8.20625 3.19687 7.74375 3.34062C7.28125 3.48437 6.85313 3.71875 6.45938 4.04375C6.06563 4.36875 5.73437 4.7875 5.46562 5.3C5.19687 5.8125 5.0625 6.4375 5.0625 7.175C5.0625 8.0125 5.39375 8.91563 6.05625 9.88437C6.71875 10.8531 7.7 11.8625 9 12.9125ZM9 14.3375C7.2875 13.05 6.01562 11.8187 5.18437 10.6437C4.35312 9.46875 3.9375 8.3125 3.9375 7.175C3.9375 6.325 4.09063 5.57812 4.39688 4.93437C4.70313 4.29062 5.1 3.75 5.5875 3.3125C6.075 2.875 6.61875 2.54688 7.21875 2.32812C7.81875 2.10938 8.4125 2 9 2C9.5875 2 10.1813 2.10938 10.7812 2.32812C11.3812 2.54688 11.925 2.875 12.4125 3.3125C12.9 3.75 13.2969 4.29062 13.6031 4.93437C13.9094 5.57812 14.0625 6.325 14.0625 7.175C14.0625 8.3125 13.6469 9.46875 12.8156 10.6437C11.9844 11.8187 10.7125 13.05 9 14.3375ZM9 8.375C9.3625 8.375 9.67188 8.24688 9.92813 7.99063C10.1844 7.73438 10.3125 7.425 10.3125 7.0625C10.3125 6.7 10.1844 6.39062 9.92813 6.13437C9.67188 5.87812 9.3625 5.75 9 5.75C8.6375 5.75 8.32812 5.87812 8.07187 6.13437C7.81562 6.39062 7.6875 6.7 7.6875 7.0625C7.6875 7.425 7.81562 7.73438 8.07187 7.99063C8.32812 8.24688 8.6375 8.375 9 8.375ZM3.9375 17V15.875H14.0625V17H3.9375Z" fill="#6F6F6F"/>
</svg>
