<svg width="25" height="24" viewBox="0 0 25 24" fill="none" xmlns="http://www.w3.org/2000/svg">
<path d="M3.5 20.575V7.075H7.5V3.075H17V11.075H21V20.575H13.5V16.575H11V20.575H3.5ZM5 19.075H7.5V16.575H5V19.075ZM5 15.075H7.5V12.575H5V15.075ZM5 11.075H7.5V8.575H5V11.075ZM9 15.075H11.5V12.575H9V15.075ZM9 11.075H11.5V8.575H9V11.075ZM9 7.075H11.5V4.575H9V7.075ZM13 15.075H15.5V12.575H13V15.075ZM13 11.075H15.5V8.575H13V11.075ZM13 7.075H15.5V4.575H13V7.075ZM17 19.075H19.5V16.575H17V19.075ZM17 15.075H19.5V12.575H17V15.075Z" fill="#6F6F6F"/>
</svg>
