<svg width="18" height="18" viewBox="0 0 18 18" fill="none" xmlns="http://www.w3.org/2000/svg">
<path d="M8.86698 15.75L8.11187 15.0686C6.81037 13.8776 5.73602 12.8492 4.88881 11.9836C4.04161 11.118 3.3663 10.3445 2.86289 9.66303C2.35948 8.98158 2.00648 8.3646 1.80389 7.81207C1.6013 7.25955 1.5 6.70089 1.5 6.13608C1.5 5.03104 1.87142 4.10709 2.61426 3.36426C3.35709 2.62142 4.2749 2.25 5.36767 2.25C6.06753 2.25 6.71521 2.41576 7.31071 2.74727C7.90621 3.07879 8.42497 3.55764 8.86698 4.18383C9.38267 3.5208 9.92906 3.03274 10.5061 2.71965C11.0832 2.40655 11.7033 2.25 12.3663 2.25C13.4591 2.25 14.3769 2.62142 15.1197 3.36426C15.8625 4.10709 16.234 5.03104 16.234 6.13608C16.234 6.70089 16.1327 7.25955 15.9301 7.81207C15.7275 8.3646 15.3745 8.98158 14.8711 9.66303C14.3677 10.3445 13.6924 11.118 12.8452 11.9836C11.998 12.8492 10.9236 13.8776 9.6221 15.0686L8.86698 15.75ZM8.86698 14.295C10.1071 13.1531 11.1293 12.1739 11.9335 11.3574C12.7377 10.5409 13.3762 9.82572 13.8489 9.2118C14.3216 8.59789 14.6531 8.0515 14.8435 7.57265C15.0338 7.09379 15.1289 6.61494 15.1289 6.13608C15.1289 5.32572 14.8711 4.65962 14.3554 4.13779C13.8397 3.61596 13.1767 3.35505 12.3663 3.35505C11.7401 3.35505 11.1569 3.54843 10.6166 3.9352C10.0764 4.32196 9.64052 4.86528 9.309 5.56514H8.40655C8.08731 4.87756 7.65757 4.33731 7.11733 3.94441C6.57708 3.5515 5.99386 3.35505 5.36767 3.35505C4.5573 3.35505 3.89427 3.61596 3.37858 4.13779C2.86289 4.65962 2.60505 5.32572 2.60505 6.13608C2.60505 6.61494 2.7002 7.09686 2.89052 7.58185C3.08083 8.06685 3.41235 8.61937 3.88506 9.23943C4.35778 9.85948 4.99932 10.5747 5.80969 11.3851C6.62005 12.1954 7.63915 13.1654 8.86698 14.295Z" fill="white"/>
</svg>
