<svg width="24" height="25" viewBox="0 0 24 25" fill="none" xmlns="http://www.w3.org/2000/svg">
<path d="M7.2 11.125L12 3.225L16.8 11.125H7.2ZM17.5 22.125C16.35 22.125 15.375 21.725 14.575 20.925C13.775 20.125 13.375 19.15 13.375 18C13.375 16.85 13.775 15.875 14.575 15.075C15.375 14.275 16.35 13.875 17.5 13.875C18.65 13.875 19.625 14.275 20.425 15.075C21.225 15.875 21.625 16.85 21.625 18C21.625 19.15 21.225 20.125 20.425 20.925C19.625 21.725 18.65 22.125 17.5 22.125ZM3.375 21.625V14.375H10.625V21.625H3.375ZM17.5 20.625C18.2333 20.625 18.8543 20.371 19.363 19.863C19.871 19.3543 20.125 18.7333 20.125 18C20.125 17.2667 19.871 16.6457 19.363 16.137C18.8543 15.629 18.2333 15.375 17.5 15.375C16.7667 15.375 16.146 15.629 15.638 16.137C15.1293 16.6457 14.875 17.2667 14.875 18C14.875 18.7333 15.1293 19.3543 15.638 19.863C16.146 20.371 16.7667 20.625 17.5 20.625ZM4.875 20.125H9.125V15.875H4.875V20.125ZM9.85 9.625H14.15L12 6.15L9.85 9.625Z" fill="#48BFBB"/>
</svg>
