<svg width="32" height="32" viewBox="0 0 32 32" fill="none" xmlns="http://www.w3.org/2000/svg">
<rect width="32" height="32" rx="16" fill="#FDE02B"/>
<g clip-path="url(#clip0_2_19)">
<path d="M25.1031 11.5305C24.8836 10.7319 24.2418 10.1025 23.4227 9.88794C21.9407 9.5 16 9.5 16 9.5C16 9.5 10.0593 9.5 8.57733 9.88794C7.76033 10.1025 7.11644 10.7319 6.89689 11.5305C6.5 12.979 6.5 16 6.5 16C6.5 16 6.5 19.021 6.89689 20.4695C7.11433 21.2681 7.75822 21.8975 8.57733 22.1121C10.0593 22.5 16 22.5 16 22.5C16 22.5 21.9407 22.5 23.4227 22.1121C24.2397 21.8975 24.8836 21.2702 25.1031 20.4695C25.5 19.021 25.5 16 25.5 16C25.5 16 25.5 12.979 25.1031 11.5305ZM14.1 18.7857V13.2143L19.0358 16L14.1 18.7857Z" fill="#1DAFAA"/>
</g>
<defs>
<clipPath id="clip0_2_19">
<rect width="19" height="13" fill="white" transform="translate(6.5 9.5)"/>
</clipPath>
</defs>
</svg>
