<svg width="24" height="24" viewBox="0 0 24 24" fill="none" xmlns="http://www.w3.org/2000/svg">
<path d="M12.0508 19.5C9.95078 19.5 8.17578 18.775 6.72578 17.325C5.27578 15.875 4.55078 14.1 4.55078 12C4.55078 9.9 5.27578 8.125 6.72578 6.675C8.17578 5.225 9.95078 4.5 12.0508 4.5C13.2174 4.5 14.3218 4.75833 15.3638 5.275C16.4051 5.79167 17.2674 6.525 17.9508 7.475V4.5H19.4508V10.625H13.3508V9.125H17.3008C16.7674 8.15833 16.0341 7.396 15.1008 6.838C14.1674 6.27933 13.1508 6 12.0508 6C10.3841 6 8.96745 6.58333 7.80078 7.75C6.63411 8.91667 6.05078 10.3333 6.05078 12C6.05078 13.6667 6.63411 15.0833 7.80078 16.25C8.96745 17.4167 10.3841 18 12.0508 18C13.3341 18 14.4924 17.6333 15.5258 16.9C16.5591 16.1667 17.2841 15.2 17.7008 14H19.2758C18.8258 15.6333 17.9301 16.9583 16.5888 17.975C15.2468 18.9917 13.7341 19.5 12.0508 19.5Z" fill="#3DA9CB"/>
</svg>
