<svg width="24" height="24" viewBox="0 0 24 24" fill="none" xmlns="http://www.w3.org/2000/svg">
<path d="M1.7998 19.3V17.075C1.7998 16.5583 1.93314 16.1 2.1998 15.7C2.46647 15.3 2.8248 14.9833 3.2748 14.75C4.2248 14.3 5.17914 13.946 6.1378 13.688C7.09581 13.4293 8.1498 13.3 9.2998 13.3C10.4498 13.3 11.5041 13.4293 12.4628 13.688C13.4208 13.946 14.3748 14.3 15.3248 14.75C15.7748 14.9833 16.1331 15.3 16.3998 15.7C16.6665 16.1 16.7998 16.5583 16.7998 17.075V19.3H1.7998ZM18.7998 19.3V16.95C18.7998 16.3 18.6371 15.679 18.3118 15.087C17.9871 14.4956 17.5331 13.9833 16.9498 13.55C17.6165 13.65 18.2498 13.804 18.8498 14.012C19.4498 14.2206 20.0248 14.4666 20.5748 14.75C21.0915 15.0333 21.4915 15.3626 21.7748 15.738C22.0581 16.1126 22.1998 16.5166 22.1998 16.95V19.3H18.7998ZM9.2998 11.7C8.33314 11.7 7.50814 11.354 6.8248 10.662C6.14147 9.97062 5.7998 9.14995 5.7998 8.19995C5.7998 7.23328 6.14147 6.40828 6.8248 5.72495C7.50814 5.04162 8.33314 4.69995 9.2998 4.69995C10.2665 4.69995 11.0915 5.04162 11.7748 5.72495C12.4581 6.40828 12.7998 7.23328 12.7998 8.19995C12.7998 9.14995 12.4581 9.97062 11.7748 10.662C11.0915 11.354 10.2665 11.7 9.2998 11.7ZM14.4248 11.7C14.4248 11.55 14.3708 11.375 14.2628 11.175C14.1541 10.975 14.0415 10.7583 13.9248 10.525C14.2081 10.0083 14.3915 9.46229 14.4748 8.88695C14.5581 8.31228 14.5415 7.73328 14.4248 7.14995C14.4248 6.71662 14.3498 6.29995 14.1998 5.89995C14.0498 5.49995 13.8415 5.14162 13.5748 4.82495C14.0081 4.77495 14.3958 4.84162 14.7378 5.02495C15.0791 5.20828 15.3248 5.44162 15.4748 5.72495C16.1415 6.02495 16.6165 6.51662 16.8998 7.19995C17.1831 7.88328 17.1831 8.55828 16.8998 9.22495C16.8998 9.90829 16.6581 10.4916 16.1748 10.975C15.6915 11.4583 15.1081 11.7 14.4248 11.7ZM3.2998 17.8H15.2998V17.075C15.2998 16.875 15.2458 16.6916 15.1378 16.525C15.0291 16.3583 14.8665 16.2166 14.6498 16.1C13.8165 15.6833 12.9665 15.3623 12.0998 15.137C11.2331 14.9123 10.2998 14.8 9.2998 14.8C8.2998 14.8 7.36247 14.9123 6.4878 15.137C5.61247 15.3623 4.76647 15.6833 3.9498 16.1C3.71647 16.2166 3.5498 16.3583 3.4498 16.525C3.3498 16.6916 3.2998 16.875 3.2998 17.075V17.8ZM9.2998 10.2C9.8498 10.2 10.3208 10.004 10.7128 9.61195C11.1041 9.22062 11.2998 8.74995 11.2998 8.19995C11.2998 7.64995 11.1041 7.17895 10.7128 6.78695C10.3208 6.39562 9.8498 6.19995 9.2998 6.19995C8.7498 6.19995 8.27914 6.39562 7.8878 6.78695C7.4958 7.17895 7.2998 7.64995 7.2998 8.19995C7.2998 8.74995 7.4958 9.22062 7.8878 9.61195C8.27914 10.004 8.7498 10.2 9.2998 10.2Z" fill="#48BFBB"/>
</svg>
