<svg width="24" height="25" viewBox="0 0 24 25" fill="none" xmlns="http://www.w3.org/2000/svg">
<path d="M6 14.5C6 15.5 6.24167 16.4373 6.725 17.312C7.20833 18.1873 7.86667 18.8917 8.7 19.425C8.63333 19.275 8.58333 19.129 8.55 18.987C8.51667 18.8457 8.5 18.7 8.5 18.55C8.5 18.0833 8.58733 17.646 8.762 17.238C8.93733 16.8293 9.19167 16.4583 9.525 16.125L12 13.7L14.475 16.125C14.8083 16.4583 15.0627 16.8293 15.238 17.238C15.4127 17.646 15.5 18.0833 15.5 18.55C15.5 18.7 15.4833 18.8457 15.45 18.987C15.4167 19.129 15.3667 19.275 15.3 19.425C16.1333 18.8917 16.7917 18.1873 17.275 17.312C17.7583 16.4373 18 15.5 18 14.5C18 13.6667 17.846 12.879 17.538 12.137C17.2293 11.3957 16.7833 10.7333 16.2 10.15C15.8667 10.3667 15.5167 10.529 15.15 10.637C14.7833 10.7457 14.4083 10.8 14.025 10.8C12.9917 10.8 12.096 10.4583 11.338 9.775C10.5793 9.09167 10.1417 8.24167 10.025 7.225C9.375 7.775 8.8 8.346 8.3 8.938C7.8 9.52933 7.37933 10.1333 7.038 10.75C6.696 11.3667 6.43767 11.9917 6.263 12.625C6.08767 13.2583 6 13.8833 6 14.5ZM12 15.8L10.575 17.2C10.3917 17.3833 10.25 17.5917 10.15 17.825C10.05 18.0583 10 18.3 10 18.55C10 19.0833 10.196 19.5417 10.588 19.925C10.9793 20.3083 11.45 20.5 12 20.5C12.55 20.5 13.021 20.3083 13.413 19.925C13.8043 19.5417 14 19.0833 14 18.55C14 18.2833 13.95 18.0373 13.85 17.812C13.75 17.5873 13.6083 17.3833 13.425 17.2L12 15.8ZM11.5 4.4V6.8C11.5 7.5 11.746 8.09167 12.238 8.575C12.7293 9.05833 13.325 9.3 14.025 9.3C14.325 9.3 14.6167 9.24167 14.9 9.125C15.1833 9.00833 15.4417 8.84167 15.675 8.625L16.1 8.175C17.15 8.84167 17.979 9.73733 18.587 10.862C19.1957 11.9873 19.5 13.2 19.5 14.5C19.5 16.6 18.775 18.375 17.325 19.825C15.875 21.275 14.1 22 12 22C9.9 22 8.125 21.275 6.675 19.825C5.225 18.375 4.5 16.6 4.5 14.5C4.5 12.5667 5.12933 10.7083 6.388 8.925C7.646 7.14167 9.35 5.63333 11.5 4.4Z" fill="white"/>
</svg>
