<svg width="20" height="20" viewBox="0 0 20 20" fill="none" xmlns="http://www.w3.org/2000/svg">
<path d="M10 13.7917C11.4444 12.6251 12.5347 11.5036 13.2708 10.4272C14.0069 9.35078 14.375 8.3473 14.375 7.41675C14.375 6.5973 14.2257 5.90286 13.9271 5.33342C13.6285 4.76397 13.2604 4.29869 12.8229 3.93758C12.3854 3.57647 11.9097 3.31605 11.3958 3.15633C10.8819 2.99661 10.4167 2.91675 10 2.91675C9.58333 2.91675 9.11806 2.99661 8.60417 3.15633C8.09028 3.31605 7.61458 3.57647 7.17708 3.93758C6.73958 4.29869 6.37153 4.76397 6.07292 5.33342C5.77431 5.90286 5.625 6.5973 5.625 7.41675C5.625 8.3473 5.99306 9.35078 6.72917 10.4272C7.46528 11.5036 8.55556 12.6251 10 13.7917ZM10 15.3751C8.09722 13.9445 6.68403 12.5765 5.76042 11.2709C4.83681 9.96536 4.375 8.68064 4.375 7.41675C4.375 6.4723 4.54514 5.64244 4.88542 4.92716C5.22569 4.21189 5.66667 3.61119 6.20833 3.12508C6.75 2.63897 7.35417 2.27439 8.02083 2.03133C8.6875 1.78828 9.34722 1.66675 10 1.66675C10.6528 1.66675 11.3125 1.78828 11.9792 2.03133C12.6458 2.27439 13.25 2.63897 13.7917 3.12508C14.3333 3.61119 14.7743 4.21189 15.1146 4.92716C15.4549 5.64244 15.625 6.4723 15.625 7.41675C15.625 8.68064 15.1632 9.96536 14.2396 11.2709C13.316 12.5765 11.9028 13.9445 10 15.3751ZM10 8.75008C10.4028 8.75008 10.7465 8.60772 11.0312 8.323C11.316 8.03828 11.4583 7.69453 11.4583 7.29175C11.4583 6.88897 11.316 6.54522 11.0312 6.2605C10.7465 5.97578 10.4028 5.83342 10 5.83342C9.59722 5.83342 9.25347 5.97578 8.96875 6.2605C8.68403 6.54522 8.54167 6.88897 8.54167 7.29175C8.54167 7.69453 8.68403 8.03828 8.96875 8.323C9.25347 8.60772 9.59722 8.75008 10 8.75008ZM4.375 18.3334V17.0834H15.625V18.3334H4.375Z" fill="#2D2D2D"/>
</svg>
