<svg width="24" height="25" viewBox="0 0 24 25" fill="none" xmlns="http://www.w3.org/2000/svg">
<path d="M3.25 21.075V7.57501H7.25V3.57501H16.75V11.575H20.75V21.075H13.25V17.075H10.75V21.075H3.25ZM4.75 19.575H7.25V17.075H4.75V19.575ZM4.75 15.575H7.25V13.075H4.75V15.575ZM4.75 11.575H7.25V9.07501H4.75V11.575ZM8.75 15.575H11.25V13.075H8.75V15.575ZM8.75 11.575H11.25V9.07501H8.75V11.575ZM8.75 7.57501H11.25V5.07501H8.75V7.57501ZM12.75 15.575H15.25V13.075H12.75V15.575ZM12.75 11.575H15.25V9.07501H12.75V11.575ZM12.75 7.57501H15.25V5.07501H12.75V7.57501ZM16.75 19.575H19.25V17.075H16.75V19.575ZM16.75 15.575H19.25V13.075H16.75V15.575Z" fill="#2D2D2D"/>
</svg>
