<svg width="25" height="25" viewBox="0 0 25 25" fill="none" xmlns="http://www.w3.org/2000/svg">
<g clip-path="url(#clip0_887_11317)">
<path d="M9.075 22.55C8.30833 22.55 7.62933 22.3377 7.038 21.913C6.446 21.4877 6.01667 20.9167 5.75 20.2C5.51667 20.5333 5.20833 20.7957 4.825 20.987C4.44167 21.179 4.04167 21.275 3.625 21.275C2.85833 21.275 2.20833 21.004 1.675 20.462C1.14167 19.9207 0.875 19.275 0.875 18.525C0.875 17.8583 1.1 17.254 1.55 16.712C2 16.1707 2.56667 15.875 3.25 15.825C2.96667 15.5083 2.74167 15.15 2.575 14.75C2.40833 14.35 2.325 13.925 2.325 13.475C2.325 12.8583 2.47933 12.2833 2.788 11.75C3.096 11.2167 3.525 10.7833 4.075 10.45C4.14167 10.6667 4.22933 10.904 4.338 11.162C4.446 11.4207 4.56667 11.6417 4.7 11.825C4.43333 12.0417 4.225 12.2957 4.075 12.587C3.925 12.879 3.85 13.1833 3.85 13.5C3.85 14.4833 4.23333 15.1043 5 15.363C5.76667 15.621 6.525 15.825 7.275 15.975L7.625 16.575C7.44167 17.1083 7.28767 17.5583 7.163 17.925C7.03767 18.2917 6.975 18.6333 6.975 18.95C6.975 19.5 7.17933 19.9877 7.588 20.413C7.996 20.8377 8.49167 21.05 9.075 21.05C9.74167 21.05 10.296 20.775 10.738 20.225C11.1793 19.675 11.5377 19.025 11.813 18.275C12.0877 17.525 12.3 16.7583 12.45 15.975C12.6 15.1917 12.725 14.575 12.825 14.125L14.3 14.525C14.15 15.225 13.975 16.0373 13.775 16.962C13.575 17.8873 13.2877 18.7623 12.913 19.587C12.5377 20.4123 12.0457 21.1127 11.437 21.688C10.829 22.2627 10.0417 22.55 9.075 22.55ZM3.625 19.775C3.975 19.775 4.271 19.65 4.513 19.4C4.75433 19.15 4.875 18.8583 4.875 18.525C4.875 18.175 4.75433 17.879 4.513 17.637C4.271 17.3957 3.975 17.275 3.625 17.275C3.275 17.275 2.979 17.3957 2.737 17.637C2.49567 17.879 2.375 18.175 2.375 18.525C2.375 18.8583 2.49567 19.15 2.737 19.4C2.979 19.65 3.275 19.775 3.625 19.775ZM10.225 15.725C9.49167 15.075 8.82933 14.4707 8.238 13.912C7.646 13.354 7.13767 12.8083 6.713 12.275C6.28767 11.7417 5.95833 11.2083 5.725 10.675C5.49167 10.1417 5.375 9.59167 5.375 9.025C5.375 8.00833 5.72067 7.15433 6.412 6.463C7.104 5.771 7.95833 5.425 8.975 5.425C9.09167 5.425 9.2 5.43333 9.3 5.45L9.6 5.5C9.53333 5.33333 9.479 5.17067 9.437 5.012C9.39567 4.854 9.375 4.68333 9.375 4.5C9.375 3.73333 9.64167 3.08333 10.175 2.55C10.7083 2.01667 11.3583 1.75 12.125 1.75C12.8917 1.75 13.5417 2.01667 14.075 2.55C14.6083 3.08333 14.875 3.73333 14.875 4.5C14.875 4.68333 14.8543 4.854 14.813 5.012C14.771 5.17067 14.7167 5.325 14.65 5.475C14.75 5.45833 14.85 5.446 14.95 5.438C15.05 5.42933 15.1583 5.425 15.275 5.425C16.1583 5.425 16.9167 5.69167 17.55 6.225C18.1833 6.75833 18.5833 7.43333 18.75 8.25C18.5167 8.21667 18.2583 8.2 17.975 8.2C17.6917 8.2 17.4333 8.20833 17.2 8.225C17.05 7.84167 16.8043 7.529 16.463 7.287C16.121 7.04567 15.725 6.925 15.275 6.925C14.675 6.925 14.2 7.09167 13.85 7.425C13.5 7.75833 13.0333 8.25833 12.45 8.925H11.775C11.175 8.225 10.7 7.71667 10.35 7.4C10 7.08333 9.54167 6.925 8.975 6.925C8.375 6.925 7.875 7.125 7.475 7.525C7.075 7.925 6.875 8.425 6.875 9.025C6.875 9.40833 6.979 9.804 7.187 10.212C7.39567 10.6207 7.69167 11.054 8.075 11.512C8.45833 11.9707 8.921 12.4583 9.463 12.975C10.0043 13.4917 10.6083 14.05 11.275 14.65L10.225 15.725ZM12.125 5.75C12.475 5.75 12.7707 5.629 13.012 5.387C13.254 5.14567 13.375 4.85 13.375 4.5C13.375 4.15 13.254 3.854 13.012 3.612C12.7707 3.37067 12.475 3.25 12.125 3.25C11.775 3.25 11.4793 3.37067 11.238 3.612C10.996 3.854 10.875 4.15 10.875 4.5C10.875 4.85 10.996 5.14567 11.238 5.387C11.4793 5.629 11.775 5.75 12.125 5.75ZM15.125 22.575C14.825 22.575 14.525 22.5373 14.225 22.462C13.925 22.3873 13.6417 22.2667 13.375 22.1C13.5083 21.9167 13.646 21.7083 13.788 21.475C13.9293 21.2417 14.05 21.0167 14.15 20.8C14.3167 20.9 14.4833 20.9667 14.65 21C14.8167 21.0333 14.9833 21.05 15.15 21.05C15.75 21.05 16.2543 20.8417 16.663 20.425C17.071 20.0083 17.275 19.5083 17.275 18.925C17.275 18.6083 17.2127 18.271 17.088 17.913C16.9627 17.5543 16.8083 17.1083 16.625 16.575L16.975 15.975C17.7417 15.825 18.5043 15.6167 19.263 15.35C20.021 15.0833 20.4 14.4583 20.4 13.475C20.4 12.7417 20.1377 12.2043 19.613 11.863C19.0877 11.521 18.5 11.35 17.85 11.35C17.1667 11.35 16.3667 11.4707 15.45 11.712C14.5333 11.954 13.4667 12.2833 12.25 12.7L11.85 11.225C13.0667 10.825 14.1583 10.4917 15.125 10.225C16.0917 9.95833 16.9833 9.825 17.8 9.825C18.8833 9.825 19.8377 10.1457 20.663 10.787C21.4877 11.429 21.9 12.325 21.9 13.475C21.9 13.925 21.821 14.3457 21.663 14.737C21.5043 15.129 21.2833 15.4917 21 15.825C21.6833 15.875 22.25 16.1667 22.7 16.7C23.15 17.2333 23.375 17.8417 23.375 18.525C23.375 19.275 23.1083 19.9207 22.575 20.462C22.0417 21.004 21.3917 21.275 20.625 21.275C20.2083 21.275 19.8083 21.179 19.425 20.987C19.0417 20.7957 18.7333 20.5333 18.5 20.2C18.2333 20.9167 17.8 21.4917 17.2 21.925C16.6 22.3583 15.9083 22.575 15.125 22.575ZM20.65 19.775C21 19.775 21.2917 19.65 21.525 19.4C21.7583 19.15 21.875 18.8583 21.875 18.525C21.875 18.175 21.7543 17.875 21.513 17.625C21.271 17.375 20.975 17.25 20.625 17.25C20.275 17.25 19.9793 17.371 19.738 17.613C19.496 17.8543 19.375 18.15 19.375 18.5C19.375 18.8333 19.5 19.129 19.75 19.387C20 19.6457 20.3 19.775 20.65 19.775Z" fill="#48BFBB"/>
</g>
<defs>
<clipPath id="clip0_887_11317">
<rect width="24" height="24" fill="white" transform="translate(0.125 0.5)"/>
</clipPath>
</defs>
</svg>
