<svg width="25" height="24" viewBox="0 0 25 24" fill="none" xmlns="http://www.w3.org/2000/svg">
<path d="M7.8 22.5C7.3 22.5 6.875 22.325 6.525 21.975C6.175 21.625 6 21.2 6 20.7V3.3C6 2.8 6.175 2.375 6.525 2.025C6.875 1.675 7.3 1.5 7.8 1.5H17.2C17.7 1.5 18.125 1.675 18.475 2.025C18.825 2.375 19 2.8 19 3.3V20.7C19 21.2 18.825 21.625 18.475 21.975C18.125 22.325 17.7 22.5 17.2 22.5H7.8ZM7.5 19.75V20.7C7.5 20.7833 7.52933 20.8543 7.588 20.913C7.646 20.971 7.71667 21 7.8 21H17.2C17.2833 21 17.3543 20.971 17.413 20.913C17.471 20.8543 17.5 20.7833 17.5 20.7V19.75H7.5ZM7.5 4.25H17.5V3.3C17.5 3.21667 17.471 3.14567 17.413 3.087C17.3543 3.029 17.2833 3 17.2 3H7.8C7.71667 3 7.646 3.029 7.588 3.087C7.52933 3.14567 7.5 3.21667 7.5 3.3V4.25ZM12.5 15.5C11.6 15.5 10.725 15.629 9.875 15.887C9.025 16.1457 8.23333 16.5167 7.5 17V18.25H17.5V17C16.7667 16.5167 15.975 16.1457 15.125 15.887C14.275 15.629 13.4 15.5 12.5 15.5ZM12.5 14C13.4 14 14.271 14.1083 15.113 14.325C15.9543 14.5417 16.75 14.85 17.5 15.25V5.75H7.5V15.25C8.25 14.85 9.04567 14.5417 9.887 14.325C10.729 14.1083 11.6 14 12.5 14ZM12.5 12.75C13.2667 12.75 13.9167 12.4833 14.45 11.95C14.9833 11.4167 15.25 10.7667 15.25 10C15.25 9.23333 14.9833 8.58333 14.45 8.05C13.9167 7.51667 13.2667 7.25 12.5 7.25C11.7333 7.25 11.0833 7.51667 10.55 8.05C10.0167 8.58333 9.75 9.23333 9.75 10C9.75 10.7667 10.0167 11.4167 10.55 11.95C11.0833 12.4833 11.7333 12.75 12.5 12.75ZM12.5 11.25C12.15 11.25 11.8543 11.129 11.613 10.887C11.371 10.6457 11.25 10.35 11.25 10C11.25 9.65 11.371 9.35433 11.613 9.113C11.8543 8.871 12.15 8.75 12.5 8.75C12.85 8.75 13.1457 8.871 13.387 9.113C13.629 9.35433 13.75 9.65 13.75 10C13.75 10.35 13.629 10.6457 13.387 10.887C13.1457 11.129 12.85 11.25 12.5 11.25ZM12.5 18.25H17.5H7.5H12.5Z" fill="#4B4B4B"/>
</svg>
