<svg width="20" height="20" viewBox="0 0 20 20" fill="none" xmlns="http://www.w3.org/2000/svg">
<path d="M10.709 17.9166C10.5423 17.9166 10.3793 17.8819 10.2198 17.8124C10.0598 17.743 9.92426 17.6527 9.81315 17.5416L2.47982 10.2083C2.35482 10.0833 2.2576 9.94436 2.18815 9.79158C2.11871 9.63881 2.08398 9.47214 2.08398 9.29158V3.33325C2.08398 2.98603 2.20565 2.69103 2.44898 2.44825C2.69176 2.20492 2.98676 2.08325 3.33398 2.08325H9.29232C9.45898 2.08325 9.62232 2.11797 9.78232 2.18742C9.94176 2.25686 10.077 2.34714 10.1882 2.45825L17.5215 9.79158C17.7715 10.0416 17.8965 10.3435 17.8965 10.6974C17.8965 11.0519 17.7784 11.3471 17.5423 11.5833L11.584 17.5416C11.4729 17.6527 11.3409 17.743 11.1882 17.8124C11.0354 17.8819 10.8757 17.9166 10.709 17.9166ZM10.6882 16.6666L16.6465 10.7083L9.29232 3.33325H3.33398V9.29158L10.6882 16.6666ZM5.41732 6.45825C5.70898 6.45825 5.95565 6.35742 6.15732 6.15575C6.35843 5.95464 6.45898 5.70825 6.45898 5.41659C6.45898 5.12492 6.35843 4.87825 6.15732 4.67659C5.95565 4.47547 5.70898 4.37492 5.41732 4.37492C5.12565 4.37492 4.87926 4.47547 4.67815 4.67659C4.47648 4.87825 4.37565 5.12492 4.37565 5.41659C4.37565 5.70825 4.47648 5.95464 4.67815 6.15575C4.87926 6.35742 5.12565 6.45825 5.41732 6.45825Z" fill="#2D2D2D"/>
</svg>
