<svg width="24" height="24" viewBox="0 0 24 24" fill="none" xmlns="http://www.w3.org/2000/svg">
<path d="M22 9.75L21.45 8.55L20.25 8L21.45 7.45L22 6.25L22.55 7.45L23.75 8L22.55 8.55L22 9.75ZM19 5.625L18.175 3.825L16.375 3L18.175 2.175L19 0.375L19.825 2.175L21.625 3L19.825 3.825L19 5.625ZM9 21.575C8.5 21.575 8.06667 21.4 7.7 21.05C7.33333 20.7 7.13333 20.275 7.1 19.775H10.9C10.8667 20.275 10.6667 20.7 10.3 21.05C9.93333 21.4 9.5 21.575 9 21.575ZM5.25 18.375V16.875H12.75V18.375H5.25ZM5.4 15.5C4.35 14.85 3.521 14 2.913 12.95C2.30433 11.9 2 10.75 2 9.5C2 7.55 2.679 5.89567 4.037 4.537C5.39567 3.179 7.05 2.5 9 2.5C10.95 2.5 12.6043 3.179 13.963 4.537C15.321 5.89567 16 7.55 16 9.5C16 10.75 15.696 11.9 15.088 12.95C14.4793 14 13.65 14.85 12.6 15.5H5.4ZM5.85 14H12.15C12.9 13.4667 13.479 12.8083 13.887 12.025C14.2957 11.2417 14.5 10.4 14.5 9.5C14.5 7.96667 13.9667 6.66667 12.9 5.6C11.8333 4.53333 10.5333 4 9 4C7.46667 4 6.16667 4.53333 5.1 5.6C4.03333 6.66667 3.5 7.96667 3.5 9.5C3.5 10.4 3.70433 11.2417 4.113 12.025C4.521 12.8083 5.1 13.4667 5.85 14Z" fill="#FEF3AA"/>
</svg>
