<svg width="24" height="24" viewBox="0 0 24 24" fill="none" xmlns="http://www.w3.org/2000/svg">
<path d="M11.8226 21L10.8158 20.0914C9.08049 18.5034 7.64802 17.1323 6.51842 15.9782C5.38881 14.824 4.4884 13.7926 3.81719 12.884C3.14598 11.9754 2.67531 11.1528 2.40518 10.4161C2.13506 9.6794 2 8.93452 2 8.18145C2 6.70805 2.49523 5.47613 3.48568 4.48568C4.47613 3.49522 5.69986 3 7.15689 3C8.09004 3 8.95361 3.22101 9.74761 3.66303C10.5416 4.10505 11.2333 4.74352 11.8226 5.57844C12.5102 4.69441 13.2387 4.04366 14.0082 3.62619C14.7776 3.20873 15.6044 3 16.4884 3C17.9454 3 19.1692 3.49522 20.1596 4.48568C21.1501 5.47613 21.6453 6.70805 21.6453 8.18145C21.6453 8.93452 21.5102 9.6794 21.2401 10.4161C20.97 11.1528 20.4993 11.9754 19.8281 12.884C19.1569 13.7926 18.2565 14.824 17.1269 15.9782C15.9973 17.1323 14.5648 18.5034 12.8295 20.0914L11.8226 21Z" fill="#1DAFAA"/>
</svg>
