<svg width="24" height="24" viewBox="0 0 24 24" fill="none" xmlns="http://www.w3.org/2000/svg">
<path d="M14.875 19.5H8.175C7.675 19.5 7.25 19.325 6.9 18.975C6.55 18.625 6.375 18.2 6.375 17.7V7H7.875V17.7C7.875 17.7667 7.90833 17.8333 7.975 17.9C8.04167 17.9667 8.10833 18 8.175 18H14.875V19.5ZM11.125 6.25C10.6083 6.25 10.1707 6.071 9.812 5.713C9.454 5.35434 9.275 4.91667 9.275 4.4C9.275 3.88334 9.454 3.44567 9.812 3.087C10.1707 2.729 10.6083 2.55 11.125 2.55C11.6417 2.55 12.0793 2.729 12.438 3.087C12.796 3.44567 12.975 3.88334 12.975 4.4C12.975 4.91667 12.796 5.35434 12.438 5.713C12.0793 6.071 11.6417 6.25 11.125 6.25ZM16.125 21.75V17H10.625C10.1417 17 9.729 16.8293 9.387 16.488C9.04567 16.146 8.875 15.7333 8.875 15.25V9.625C8.875 8.975 9.09167 8.43734 9.525 8.012C9.95833 7.58734 10.4917 7.375 11.125 7.375C11.7583 7.375 12.2917 7.58734 12.725 8.012C13.1583 8.43734 13.375 8.975 13.375 9.625V14.5H15.875C16.3583 14.5 16.771 14.6707 17.113 15.012C17.4543 15.354 17.625 15.7667 17.625 16.25V21.75H16.125Z" fill="#2D2D2D"/>
</svg>
