<svg width="21" height="20" viewBox="0 0 21 20" fill="none" xmlns="http://www.w3.org/2000/svg">
<path d="M13.3685 4.26146L13.3685 4.26145C12.4794 3.82059 11.5363 3.6 10.541 3.6C8.75231 3.6 7.23466 4.21922 5.99745 5.45643C4.76024 6.69365 4.14102 8.21129 4.14102 10C4.14102 11.7887 4.76024 13.3064 5.99745 14.5436C7.23466 15.7808 8.75231 16.4 10.541 16.4C11.9765 16.4 13.2689 15.9657 14.4133 15.0987L14.4133 15.0987C15.5575 14.2314 16.3228 13.0992 16.7065 11.7065L16.7588 11.5167H16.5618H15.2493H15.1426L15.1076 11.6175C14.7706 12.5881 14.1856 13.368 13.35 13.961C12.5146 14.5539 11.5798 14.85 10.541 14.85C9.19146 14.85 8.04919 14.3794 7.10541 13.4356C6.16164 12.4918 5.69102 11.3496 5.69102 10C5.69102 8.65044 6.16164 7.50817 7.10541 6.5644C8.04919 5.62063 9.19146 5.15 10.541 5.15C11.4309 5.15 12.2514 5.37558 13.0056 5.82704L13.0057 5.82708C13.6873 6.2346 14.2367 6.77636 14.6548 7.45417H11.6243H11.4743V7.60417V8.85417V9.00417H11.6243H16.7077H16.8577V8.85417V3.75V3.6H16.7077H15.4577H15.3077V3.75V5.79038C14.7722 5.14699 14.1255 4.63703 13.3685 4.26146Z" fill="#909090" stroke="#909090" stroke-width="0.3"/>
</svg>
