<svg width="25" height="25" viewBox="0 0 25 25" fill="none" xmlns="http://www.w3.org/2000/svg">
<path d="M11.825 17.65H13.325V16.525H14.525C14.775 16.525 14.9792 16.425 15.1375 16.225C15.2958 16.025 15.375 15.8 15.375 15.55V12.675C15.375 12.4083 15.2958 12.1792 15.1375 11.9875C14.9792 11.7958 14.775 11.7 14.525 11.7H11.125V9.975H15.375V8.475H13.325V7.35H11.825V8.475H10.6C10.35 8.475 10.125 8.575 9.925 8.775C9.725 8.975 9.625 9.20833 9.625 9.475V12.325C9.625 12.5917 9.725 12.8042 9.925 12.9625C10.125 13.1208 10.35 13.2 10.6 13.2H13.875V15.025H9.625V16.525H11.825V17.65ZM4 20.5C3.6 20.5 3.25 20.35 2.95 20.05C2.65 19.75 2.5 19.4 2.5 19V6C2.5 5.6 2.65 5.25 2.95 4.95C3.25 4.65 3.6 4.5 4 4.5H21C21.4 4.5 21.75 4.65 22.05 4.95C22.35 5.25 22.5 5.6 22.5 6V19C22.5 19.4 22.35 19.75 22.05 20.05C21.75 20.35 21.4 20.5 21 20.5H4ZM4 19H21V6H4V19Z" fill="#48BFBB"/>
</svg>
