<svg width="20" height="21" viewBox="0 0 20 21" fill="none" xmlns="http://www.w3.org/2000/svg">
<path d="M6.70768 13.8335H16.2077C16.2632 13.8335 16.3188 13.8057 16.3743 13.7502C16.4299 13.6946 16.4577 13.6391 16.4577 13.5835V4.0835C16.4577 4.02794 16.4299 3.97238 16.3743 3.91683C16.3188 3.86127 16.2632 3.8335 16.2077 3.8335H14.791V9.29183L12.916 8.16683L11.041 9.29183V3.8335H6.70768C6.65213 3.8335 6.59657 3.86127 6.54102 3.91683C6.48546 3.97238 6.45768 4.02794 6.45768 4.0835V13.5835C6.45768 13.6391 6.48546 13.6946 6.54102 13.7502C6.59657 13.8057 6.65213 13.8335 6.70768 13.8335ZM6.70768 15.0835C6.29102 15.0835 5.93685 14.9377 5.64518 14.646C5.35352 14.3543 5.20768 14.0002 5.20768 13.5835V4.0835C5.20768 3.66683 5.35352 3.31266 5.64518 3.021C5.93685 2.72933 6.29102 2.5835 6.70768 2.5835H16.2077C16.6244 2.5835 16.9785 2.72933 17.2702 3.021C17.5618 3.31266 17.7077 3.66683 17.7077 4.0835V13.5835C17.7077 14.0002 17.5618 14.3543 17.2702 14.646C16.9785 14.9377 16.6244 15.0835 16.2077 15.0835H6.70768ZM3.79102 18.0002C3.37435 18.0002 3.02018 17.8543 2.72852 17.5627C2.43685 17.271 2.29102 16.9168 2.29102 16.5002V5.75016H3.54102V16.5002C3.54102 16.5557 3.56879 16.6113 3.62435 16.6668C3.6799 16.7224 3.73546 16.7502 3.79102 16.7502H14.541V18.0002H3.79102ZM11.041 3.8335H14.791H11.041ZM6.70768 3.8335H6.45768H16.4577H16.2077H6.70768Z" fill="black"/>
</svg>
