<svg width="20" height="20" viewBox="0 0 20 20" fill="none" xmlns="http://www.w3.org/2000/svg">
<path d="M12.3958 16.25H6.8125C6.39583 16.25 6.04167 16.1042 5.75 15.8125C5.45833 15.5208 5.3125 15.1667 5.3125 14.75V5.83333H6.5625V14.75C6.5625 14.8056 6.59028 14.8611 6.64583 14.9167C6.70139 14.9722 6.75694 15 6.8125 15H12.3958V16.25ZM9.27083 5.20833C8.84028 5.20833 8.47556 5.05917 8.17667 4.76083C7.87833 4.46194 7.72917 4.09722 7.72917 3.66667C7.72917 3.23611 7.87833 2.87139 8.17667 2.5725C8.47556 2.27417 8.84028 2.125 9.27083 2.125C9.70139 2.125 10.0661 2.27417 10.365 2.5725C10.6633 2.87139 10.8125 3.23611 10.8125 3.66667C10.8125 4.09722 10.6633 4.46194 10.365 4.76083C10.0661 5.05917 9.70139 5.20833 9.27083 5.20833ZM13.4375 18.125V14.1667H8.85417C8.45139 14.1667 8.1075 14.0244 7.8225 13.74C7.53806 13.455 7.39583 13.1111 7.39583 12.7083V8.02083C7.39583 7.47917 7.57639 7.03111 7.9375 6.67667C8.29861 6.32278 8.74306 6.14583 9.27083 6.14583C9.79861 6.14583 10.2431 6.32278 10.6042 6.67667C10.9653 7.03111 11.1458 7.47917 11.1458 8.02083V12.0833H13.2292C13.6319 12.0833 13.9758 12.2256 14.2608 12.51C14.5453 12.795 14.6875 13.1389 14.6875 13.5417V18.125H13.4375Z" fill="#6F6F6F"/>
</svg>
