<svg width="20" height="20" viewBox="0 0 20 20" fill="none" xmlns="http://www.w3.org/2000/svg">
<path d="M12.8965 13.7708L13.7715 12.8958L10.6257 9.75001V5.83334H9.37565V10.25L12.8965 13.7708ZM10.0007 17.9167C8.90343 17.9167 7.87232 17.7083 6.90732 17.2917C5.94176 16.875 5.10482 16.3125 4.39648 15.6042C3.68815 14.8958 3.12565 14.0589 2.70898 13.0933C2.29232 12.1283 2.08398 11.0972 2.08398 10C2.08398 8.90279 2.29232 7.8714 2.70898 6.90584C3.12565 5.94084 3.68815 5.10418 4.39648 4.39584C5.10482 3.68751 5.94176 3.12501 6.90732 2.70834C7.87232 2.29168 8.90343 2.08334 10.0007 2.08334C11.0979 2.08334 12.1293 2.29168 13.0948 2.70834C14.0598 3.12501 14.8965 3.68751 15.6048 4.39584C16.3132 5.10418 16.8757 5.94084 17.2923 6.90584C17.709 7.8714 17.9173 8.90279 17.9173 10C17.9173 11.0972 17.709 12.1283 17.2923 13.0933C16.8757 14.0589 16.3132 14.8958 15.6048 15.6042C14.8965 16.3125 14.0598 16.875 13.0948 17.2917C12.1293 17.7083 11.0979 17.9167 10.0007 17.9167ZM10.0007 16.6667C11.8479 16.6667 13.4209 16.0175 14.7198 14.7192C16.0182 13.4203 16.6673 11.8472 16.6673 10C16.6673 8.15279 16.0182 6.57973 14.7198 5.28084C13.4209 3.98251 11.8479 3.33334 10.0007 3.33334C8.15343 3.33334 6.58065 3.98251 5.28232 5.28084C3.98343 6.57973 3.33398 8.15279 3.33398 10C3.33398 11.8472 3.98343 13.4203 5.28232 14.7192C6.58065 16.0175 8.15343 16.6667 10.0007 16.6667Z" fill="#6F6F6F"/>
</svg>
