<svg width="25" height="25" viewBox="0 0 25 25" fill="none" xmlns="http://www.w3.org/2000/svg">
<path d="M12.975 22C12.775 22 12.5793 21.9583 12.388 21.875C12.196 21.7917 12.0333 21.6833 11.9 21.55L3.1 12.75C2.95 12.6 2.83333 12.4333 2.75 12.25C2.66667 12.0667 2.625 11.8667 2.625 11.65V4.5C2.625 4.08333 2.771 3.72933 3.063 3.438C3.35433 3.146 3.70833 3 4.125 3H11.275C11.475 3 11.671 3.04167 11.863 3.125C12.0543 3.20833 12.2167 3.31667 12.35 3.45L21.15 12.25C21.45 12.55 21.6 12.9123 21.6 13.337C21.6 13.7623 21.4583 14.1167 21.175 14.4L14.025 21.55C13.8917 21.6833 13.7333 21.7917 13.55 21.875C13.3667 21.9583 13.175 22 12.975 22ZM12.95 20.5L20.1 13.35L11.275 4.5H4.125V11.65L12.95 20.5ZM6.625 8.25C6.975 8.25 7.271 8.129 7.513 7.887C7.75433 7.64567 7.875 7.35 7.875 7C7.875 6.65 7.75433 6.354 7.513 6.112C7.271 5.87067 6.975 5.75 6.625 5.75C6.275 5.75 5.97933 5.87067 5.738 6.112C5.496 6.354 5.375 6.65 5.375 7C5.375 7.35 5.496 7.64567 5.738 7.887C5.97933 8.129 6.275 8.25 6.625 8.25Z" fill="#48BFBB"/>
</svg>
