<svg width="25" height="25" viewBox="0 0 25 25" fill="none" xmlns="http://www.w3.org/2000/svg">
<path d="M12.75 17.05C14.4833 15.65 15.7917 14.3042 16.675 13.0125C17.5583 11.7208 18 10.5167 18 9.4C18 8.41667 17.8208 7.58333 17.4625 6.9C17.1042 6.21667 16.6625 5.65833 16.1375 5.225C15.6125 4.79167 15.0417 4.47917 14.425 4.2875C13.8083 4.09583 13.25 4 12.75 4C12.25 4 11.6917 4.09583 11.075 4.2875C10.4583 4.47917 9.8875 4.79167 9.3625 5.225C8.8375 5.65833 8.39583 6.21667 8.0375 6.9C7.67917 7.58333 7.5 8.41667 7.5 9.4C7.5 10.5167 7.94167 11.7208 8.825 13.0125C9.70833 14.3042 11.0167 15.65 12.75 17.05ZM12.75 18.95C10.4667 17.2333 8.77083 15.5917 7.6625 14.025C6.55417 12.4583 6 10.9167 6 9.4C6 8.26667 6.20417 7.27083 6.6125 6.4125C7.02083 5.55417 7.55 4.83333 8.2 4.25C8.85 3.66667 9.575 3.22917 10.375 2.9375C11.175 2.64583 11.9667 2.5 12.75 2.5C13.5333 2.5 14.325 2.64583 15.125 2.9375C15.925 3.22917 16.65 3.66667 17.3 4.25C17.95 4.83333 18.4792 5.55417 18.8875 6.4125C19.2958 7.27083 19.5 8.26667 19.5 9.4C19.5 10.9167 18.9458 12.4583 17.8375 14.025C16.7292 15.5917 15.0333 17.2333 12.75 18.95ZM12.75 11C13.2333 11 13.6458 10.8292 13.9875 10.4875C14.3292 10.1458 14.5 9.73333 14.5 9.25C14.5 8.76667 14.3292 8.35417 13.9875 8.0125C13.6458 7.67083 13.2333 7.5 12.75 7.5C12.2667 7.5 11.8542 7.67083 11.5125 8.0125C11.1708 8.35417 11 8.76667 11 9.25C11 9.73333 11.1708 10.1458 11.5125 10.4875C11.8542 10.8292 12.2667 11 12.75 11ZM6 22.5V21H19.5V22.5H6Z" fill="#48BFBB"/>
</svg>
