<svg width="20" height="21" viewBox="0 0 20 21" fill="none" xmlns="http://www.w3.org/2000/svg">
<path d="M10.2507 16.125H4.20898C3.79232 16.125 3.43815 15.9792 3.14648 15.6875C2.85482 15.3958 2.70898 15.0417 2.70898 14.625V5.54167C2.70898 5.125 2.85482 4.77083 3.14648 4.47917C3.43815 4.1875 3.79232 4.04167 4.20898 4.04167H5.20898V2.375H6.45898V4.04167H11.8757V2.375H13.1257V4.04167H14.1257C14.5423 4.04167 14.8965 4.1875 15.1882 4.47917C15.4798 4.77083 15.6257 5.125 15.6257 5.54167V10.75C15.5145 10.7361 15.4104 10.7256 15.3132 10.7183C15.2159 10.7117 15.1118 10.7083 15.0007 10.7083C14.8895 10.7083 14.7854 10.7117 14.6882 10.7183C14.5909 10.7256 14.4868 10.7361 14.3757 10.75V7.79167H3.95898V14.625C3.95898 14.6944 3.98343 14.7536 4.03232 14.8025C4.08065 14.8508 4.13954 14.875 4.20898 14.875H10.2507C10.2368 14.9861 10.2262 15.0903 10.219 15.1875C10.2123 15.2847 10.209 15.3889 10.209 15.5C10.209 15.6111 10.2123 15.7153 10.219 15.8125C10.2262 15.9097 10.2368 16.0139 10.2507 16.125ZM14.3757 18.625V16.125H11.8757V14.875H14.3757V12.375H15.6257V14.875H18.1257V16.125H15.6257V18.625H14.3757Z" fill="black"/>
</svg>
