<svg width="20" height="20" viewBox="0 0 20 20" fill="none" xmlns="http://www.w3.org/2000/svg">
<path d="M4.41797 17.0832C4.0013 17.0832 3.64714 16.9373 3.35547 16.6457C3.0638 16.354 2.91797 15.9998 2.91797 15.5832V4.4165C2.91797 3.99984 3.0638 3.64567 3.35547 3.354C3.64714 3.06234 4.0013 2.9165 4.41797 2.9165H15.5846C16.0013 2.9165 16.3555 3.06234 16.6471 3.354C16.9388 3.64567 17.0846 3.99984 17.0846 4.4165V15.5832C17.0846 15.9998 16.9388 16.354 16.6471 16.6457C16.3555 16.9373 16.0013 17.0832 15.5846 17.0832H4.41797ZM4.41797 15.8332H15.5846C15.6402 15.8332 15.6957 15.8054 15.7513 15.7498C15.8069 15.6943 15.8346 15.6387 15.8346 15.5832V4.4165C15.8346 4.36095 15.8069 4.30539 15.7513 4.24984C15.6957 4.19428 15.6402 4.1665 15.5846 4.1665H4.41797C4.36241 4.1665 4.30686 4.19428 4.2513 4.24984C4.19575 4.30539 4.16797 4.36095 4.16797 4.4165V15.5832C4.16797 15.6387 4.19575 15.6943 4.2513 15.7498C4.30686 15.8054 4.36241 15.8332 4.41797 15.8332Z" fill="#F6F6F6"/>
</svg>
