<svg width="29" height="28" viewBox="0 0 29 28" fill="none" xmlns="http://www.w3.org/2000/svg">
<path d="M9.83398 21C9.54232 21 9.29926 20.8982 9.10482 20.6944C8.91037 20.4898 8.81315 20.2514 8.81315 19.9792C8.81315 19.6875 8.91037 19.4398 9.10482 19.236C9.29926 19.0315 9.54232 18.9292 9.83398 18.9292C10.1257 18.9292 10.3687 19.0315 10.5632 19.236C10.7576 19.4398 10.8548 19.6875 10.8548 19.9792C10.8548 20.2514 10.7576 20.4898 10.5632 20.6944C10.3687 20.8982 10.1257 21 9.83398 21ZM9.83398 16.4209C9.54232 16.4209 9.29926 16.3186 9.10482 16.114C8.91037 15.9103 8.81315 15.6723 8.81315 15.4C8.81315 15.1084 8.91037 14.8603 9.10482 14.6557C9.29926 14.4519 9.54232 14.35 9.83398 14.35C10.1257 14.35 10.3687 14.4519 10.5632 14.6557C10.7576 14.8603 10.8548 15.1084 10.8548 15.4C10.8548 15.6723 10.7576 15.9103 10.5632 16.114C10.3687 16.3186 10.1257 16.4209 9.83398 16.4209ZM14.5007 21C14.209 21 13.9659 20.8982 13.7715 20.6944C13.577 20.4898 13.4798 20.2514 13.4798 19.9792C13.4798 19.6875 13.577 19.4398 13.7715 19.236C13.9659 19.0315 14.209 18.9292 14.5007 18.9292C14.7923 18.9292 15.0354 19.0315 15.2298 19.236C15.4243 19.4398 15.5215 19.6875 15.5215 19.9792C15.5215 20.2514 15.4243 20.4898 15.2298 20.6944C15.0354 20.8982 14.7923 21 14.5007 21ZM14.5007 16.4209C14.209 16.4209 13.9659 16.3186 13.7715 16.114C13.577 15.9103 13.4798 15.6723 13.4798 15.4C13.4798 15.1084 13.577 14.8603 13.7715 14.6557C13.9659 14.4519 14.209 14.35 14.5007 14.35C14.7923 14.35 15.0354 14.4519 15.2298 14.6557C15.4243 14.8603 15.5215 15.1084 15.5215 15.4C15.5215 15.6723 15.4243 15.9103 15.2298 16.114C15.0354 16.3186 14.7923 16.4209 14.5007 16.4209ZM19.1673 21C18.8757 21 18.6326 20.8982 18.4382 20.6944C18.2437 20.4898 18.1465 20.2514 18.1465 19.9792C18.1465 19.6875 18.2437 19.4398 18.4382 19.236C18.6326 19.0315 18.8757 18.9292 19.1673 18.9292C19.459 18.9292 19.702 19.0315 19.8965 19.236C20.0909 19.4398 20.1882 19.6875 20.1882 19.9792C20.1882 20.2514 20.0909 20.4898 19.8965 20.6944C19.702 20.8982 19.459 21 19.1673 21ZM19.1673 16.4209C18.8757 16.4209 18.6326 16.3186 18.4382 16.114C18.2437 15.9103 18.1465 15.6723 18.1465 15.4C18.1465 15.1084 18.2437 14.8603 18.4382 14.6557C18.6326 14.4519 18.8757 14.35 19.1673 14.35C19.459 14.35 19.702 14.4519 19.8965 14.6557C20.0909 14.8603 20.1882 15.1084 20.1882 15.4C20.1882 15.6723 20.0909 15.9103 19.8965 16.114C19.702 16.3186 19.459 16.4209 19.1673 16.4209ZM6.68398 25.0834C6.10065 25.0834 5.60482 24.8792 5.19648 24.4709C4.78815 24.0625 4.58398 23.5667 4.58398 22.9834V7.35004C4.58398 6.76671 4.78815 6.27087 5.19648 5.86254C5.60482 5.45421 6.10065 5.25004 6.68398 5.25004H8.31732V2.77087H10.0965V5.25004H18.934V2.77087H20.684V5.25004H22.3173C22.9007 5.25004 23.3965 5.45421 23.8048 5.86254C24.2132 6.27087 24.4173 6.76671 24.4173 7.35004V22.9834C24.4173 23.5667 24.2132 24.0625 23.8048 24.4709C23.3965 24.8792 22.9007 25.0834 22.3173 25.0834H6.68398ZM6.68398 23.3334H22.3173C22.3951 23.3334 22.4729 23.2945 22.5506 23.2167C22.6284 23.1389 22.6673 23.0612 22.6673 22.9834V12.0167H6.33398V22.9834C6.33398 23.0612 6.37287 23.1389 6.45065 23.2167C6.52843 23.2945 6.60621 23.3334 6.68398 23.3334ZM6.33398 10.2667H22.6673V7.35004C22.6673 7.27226 22.6284 7.19448 22.5506 7.11671C22.4729 7.03893 22.3951 7.00004 22.3173 7.00004H6.68398C6.60621 7.00004 6.52843 7.03893 6.45065 7.11671C6.37287 7.19448 6.33398 7.27226 6.33398 7.35004V10.2667ZM6.33398 10.2667V7.00004V10.2667Z" fill="white"/>
</svg>
