<svg width="18" height="19" viewBox="0 0 18 19" fill="none" xmlns="http://www.w3.org/2000/svg">
<path d="M5.4375 13.0625H8.0625V10.4375H5.4375V13.0625ZM9.9375 13.0625H12.5625V10.4375H9.9375V13.0625ZM5.4375 8.5625H8.0625V5.9375H5.4375V8.5625ZM9.9375 8.5625H12.5625V5.9375H9.9375V8.5625ZM3.375 16.25C3.075 16.25 2.8125 16.1375 2.5875 15.9125C2.3625 15.6875 2.25 15.425 2.25 15.125V3.875C2.25 3.575 2.3625 3.3125 2.5875 3.0875C2.8125 2.8625 3.075 2.75 3.375 2.75H14.625C14.925 2.75 15.1875 2.8625 15.4125 3.0875C15.6375 3.3125 15.75 3.575 15.75 3.875V15.125C15.75 15.425 15.6375 15.6875 15.4125 15.9125C15.1875 16.1375 14.925 16.25 14.625 16.25H3.375ZM3.375 15.125H14.625V3.875H3.375V15.125ZM3.375 3.875V15.125V3.875Z" fill="#6F6F6F"/>
</svg>
