<svg width="24" height="25" viewBox="0 0 24 25" fill="none" xmlns="http://www.w3.org/2000/svg">
<path d="M6.025 17.8C6.875 17.1667 7.8 16.6667 8.8 16.3C9.8 15.9333 10.8667 15.75 12 15.75C13.1333 15.75 14.2 15.9333 15.2 16.3C16.2 16.6667 17.125 17.1667 17.975 17.8C18.5917 17.1167 19.0833 16.325 19.45 15.425C19.8167 14.525 20 13.55 20 12.5C20 10.2833 19.221 8.39567 17.663 6.837C16.1043 5.279 14.2167 4.5 12 4.5C9.78333 4.5 7.896 5.279 6.338 6.837C4.77933 8.39567 4 10.2833 4 12.5C4 13.55 4.18333 14.525 4.55 15.425C4.91667 16.325 5.40833 17.1167 6.025 17.8ZM12 13.25C11.0833 13.25 10.3127 12.9373 9.688 12.312C9.06267 11.6873 8.75 10.9167 8.75 10C8.75 9.08333 9.06267 8.31267 9.688 7.688C10.3127 7.06267 11.0833 6.75 12 6.75C12.9167 6.75 13.6873 7.06267 14.312 7.688C14.9373 8.31267 15.25 9.08333 15.25 10C15.25 10.9167 14.9373 11.6873 14.312 12.312C13.6873 12.9373 12.9167 13.25 12 13.25ZM12 22C10.6833 22 9.446 21.75 8.288 21.25C7.12933 20.75 6.125 20.075 5.275 19.225C4.425 18.375 3.75 17.3707 3.25 16.212C2.75 15.054 2.5 13.8167 2.5 12.5C2.5 11.1833 2.75 9.94567 3.25 8.787C3.75 7.629 4.425 6.625 5.275 5.775C6.125 4.925 7.12933 4.25 8.288 3.75C9.446 3.25 10.6833 3 12 3C13.3167 3 14.5543 3.25 15.713 3.75C16.871 4.25 17.875 4.925 18.725 5.775C19.575 6.625 20.25 7.629 20.75 8.787C21.25 9.94567 21.5 11.1833 21.5 12.5C21.5 13.8167 21.25 15.054 20.75 16.212C20.25 17.3707 19.575 18.375 18.725 19.225C17.875 20.075 16.871 20.75 15.713 21.25C14.5543 21.75 13.3167 22 12 22ZM12 20.5C12.9 20.5 13.771 20.354 14.613 20.062C15.4543 19.7707 16.2 19.3667 16.85 18.85C16.2 18.35 15.4623 17.9583 14.637 17.675C13.8123 17.3917 12.9333 17.25 12 17.25C11.0667 17.25 10.1877 17.3877 9.363 17.663C8.53767 17.9377 7.8 18.3333 7.15 18.85C7.8 19.3667 8.54567 19.7707 9.387 20.062C10.229 20.354 11.1 20.5 12 20.5ZM12 11.75C12.5 11.75 12.9167 11.5833 13.25 11.25C13.5833 10.9167 13.75 10.5 13.75 10C13.75 9.5 13.5833 9.08333 13.25 8.75C12.9167 8.41667 12.5 8.25 12 8.25C11.5 8.25 11.0833 8.41667 10.75 8.75C10.4167 9.08333 10.25 9.5 10.25 10C10.25 10.5 10.4167 10.9167 10.75 11.25C11.0833 11.5833 11.5 11.75 12 11.75Z" fill="#2D2D2D"/>
</svg>
