<svg width="29" height="29" viewBox="0 0 29 29" fill="none" xmlns="http://www.w3.org/2000/svg">
<path d="M7.5 16.8334C7.5 18 7.78194 19.0936 8.34583 20.114C8.90972 21.1353 9.67778 21.957 10.65 22.5792C10.5722 22.4042 10.5139 22.2339 10.475 22.0682C10.4361 21.9033 10.4167 21.7334 10.4167 21.5584C10.4167 21.0139 10.5186 20.5037 10.7223 20.0277C10.9269 19.5509 11.2236 19.1181 11.6125 18.7292L14.5 15.9L17.3875 18.7292C17.7764 19.1181 18.0731 19.5509 18.2777 20.0277C18.4814 20.5037 18.5833 21.0139 18.5833 21.5584C18.5833 21.7334 18.5639 21.9033 18.525 22.0682C18.4861 22.2339 18.4278 22.4042 18.35 22.5792C19.3222 21.957 20.0903 21.1353 20.6542 20.114C21.2181 19.0936 21.5 18 21.5 16.8334C21.5 15.8612 21.3203 14.9422 20.961 14.0765C20.6009 13.2117 20.0806 12.4389 19.4 11.7584C19.0111 12.0112 18.6028 12.2005 18.175 12.3265C17.7472 12.4533 17.3097 12.5167 16.8625 12.5167C15.6569 12.5167 14.612 12.1181 13.7277 11.3209C12.8426 10.5237 12.3319 9.53199 12.1958 8.34588C11.4375 8.98755 10.7667 9.65372 10.1833 10.3444C9.6 11.0343 9.10922 11.7389 8.711 12.4584C8.312 13.1778 8.01061 13.907 7.80683 14.6459C7.60228 15.3848 7.5 16.1139 7.5 16.8334ZM14.5 18.35L12.8375 19.9834C12.6236 20.1973 12.4583 20.4403 12.3417 20.7125C12.225 20.9848 12.1667 21.2667 12.1667 21.5584C12.1667 22.1806 12.3953 22.7153 12.8527 23.1625C13.3092 23.6098 13.8583 23.8334 14.5 23.8334C15.1417 23.8334 15.6912 23.6098 16.1485 23.1625C16.6051 22.7153 16.8333 22.1806 16.8333 21.5584C16.8333 21.2473 16.775 20.9603 16.6583 20.6974C16.5417 20.4353 16.3764 20.1973 16.1625 19.9834L14.5 18.35ZM13.9167 5.05005V7.85005C13.9167 8.66672 14.2037 9.35699 14.7777 9.92088C15.3509 10.4848 16.0458 10.7667 16.8625 10.7667C17.2125 10.7667 17.5528 10.6987 17.8833 10.5625C18.2139 10.4264 18.5153 10.232 18.7875 9.97922L19.2833 9.45422C20.5083 10.232 21.4755 11.2769 22.1848 12.589C22.8949 13.9019 23.25 15.3167 23.25 16.8334C23.25 19.2834 22.4042 21.3542 20.7125 23.0459C19.0208 24.7375 16.95 25.5834 14.5 25.5834C12.05 25.5834 9.97917 24.7375 8.2875 23.0459C6.59583 21.3542 5.75 19.2834 5.75 16.8334C5.75 14.5778 6.48422 12.4098 7.95267 10.3292C9.42033 8.24866 11.4083 6.48894 13.9167 5.05005Z" fill="#1DAFAA"/>
</svg>
