<svg width="32" height="32" viewBox="0 0 32 32" fill="none" xmlns="http://www.w3.org/2000/svg">
<rect width="32" height="32" rx="16" fill="#CCCCCC"/>
<path d="M15.6643 26C15.4775 26 15.3004 25.9523 15.1516 25.8617L15.1411 25.8553C14.9899 25.7582 14.8718 25.6208 14.791 25.4477C14.7368 25.3305 14.6996 25.2011 14.6826 25.0636C14.6486 24.7758 14.6923 24.517 14.7303 24.2898C14.7408 24.2259 14.7521 24.1612 14.7602 24.0973C14.7845 23.9073 14.7918 23.6938 14.7796 23.4634L14.7756 23.4262C14.7707 23.3777 14.7667 23.3356 14.7602 23.3106L14.7554 23.2911C14.7489 23.2879 14.74 23.2847 14.7287 23.2814L14.7101 23.275C14.6519 23.2548 14.5629 23.2451 14.4691 23.2345C13.8546 23.1618 13.1357 23.0623 12.4274 22.8715C11.2428 22.5569 10.1042 21.9974 9.04414 21.2106C8.18944 20.5807 7.45765 19.8562 6.86898 19.0572C6.27788 18.2527 5.86387 17.4222 5.63746 16.5886C5.20081 15.0061 5.38517 13.249 6.1574 11.6423C6.83825 10.2248 7.97031 8.95525 9.42985 7.96955C11.1425 6.81242 13.1373 6.14855 15.2025 6.0499C17.9324 5.78548 20.7593 6.58035 22.9588 8.23316C24.3843 9.31265 25.4509 10.6638 26.0452 12.142C26.7115 13.7867 26.7746 15.6223 26.2167 17.1748C25.8002 18.3352 25.0369 19.4284 23.8159 20.6146C22.1243 22.2594 20.1116 23.5709 18.196 24.7741C17.5322 25.193 16.9265 25.565 16.2489 25.8569C16.1381 25.9062 15.9893 25.966 15.8171 25.9903C15.7653 25.9968 15.7144 26 15.6643 26Z" fill="#F2F2F2"/>
<path d="M12.5451 16.0641H11.1163V12.7585C11.1163 12.444 10.8608 12.1885 10.5462 12.1885C10.2317 12.1885 9.97614 12.444 9.97614 12.7585V16.6342C9.97614 16.9488 10.2317 17.2043 10.5462 17.2043H12.5451C12.8596 17.2043 13.1152 16.9488 13.1152 16.6342C13.1152 16.3189 12.8596 16.0641 12.5451 16.0641Z" fill="#CCCCCC"/>
<path d="M14.0482 17.2032C13.7336 17.2032 13.4781 16.9477 13.4781 16.6332V12.7583C13.4781 12.4437 13.7336 12.1882 14.0482 12.1882C14.3627 12.1882 14.6182 12.4437 14.6182 12.7583V16.634C14.6174 16.9485 14.3627 17.2032 14.0482 17.2032Z" fill="#CCCCCC"/>
<path d="M19.3877 12.7582C19.3877 12.4436 19.1322 12.1881 18.8177 12.1881C18.5031 12.1881 18.2476 12.4436 18.2476 12.7582V14.939L16.3328 12.4137C16.3304 12.4113 16.3279 12.4089 16.3263 12.4056C16.3199 12.3976 16.3126 12.3895 16.3061 12.3814C16.3005 12.3749 16.2948 12.3684 16.2883 12.362C16.2819 12.3555 16.2754 12.349 16.2689 12.3426C16.2616 12.3361 16.2544 12.3288 16.2471 12.3232C16.2406 12.3175 16.2342 12.3127 16.2277 12.3078C16.2196 12.3013 16.2115 12.2949 16.2034 12.2892C16.1961 12.2844 16.1897 12.2803 16.1824 12.2755C16.1743 12.2706 16.1654 12.2649 16.1573 12.2601C16.1492 12.2552 16.1404 12.2512 16.1323 12.2472C16.1242 12.2431 16.1169 12.2391 16.1088 12.2358C16.0991 12.2318 16.0894 12.2277 16.0797 12.2245C16.0724 12.2221 16.0652 12.2189 16.0579 12.2164C16.0474 12.2132 16.0368 12.21 16.0263 12.2075C16.0191 12.2059 16.0118 12.2035 16.0037 12.2019C15.994 12.1994 15.9835 12.1978 15.973 12.1962C15.9649 12.1946 15.956 12.1938 15.9479 12.1922C15.939 12.1914 15.9293 12.1906 15.9196 12.1897C15.9099 12.1889 15.9002 12.1881 15.8897 12.1881C15.8856 12.1881 15.8824 12.1873 15.8784 12.1873C15.8735 12.1873 15.8687 12.1881 15.8638 12.1881C15.8533 12.1881 15.8428 12.1889 15.8331 12.1897C15.8242 12.1906 15.8153 12.1914 15.8072 12.1922C15.7975 12.1938 15.7878 12.1946 15.7781 12.1962C15.7692 12.1978 15.7603 12.1994 15.7514 12.2019C15.7425 12.2043 15.7336 12.2059 15.7247 12.2083C15.715 12.2108 15.7061 12.214 15.6972 12.2172C15.6891 12.2197 15.6811 12.2229 15.673 12.2261C15.6633 12.2302 15.6544 12.2334 15.6447 12.2383C15.6374 12.2415 15.6301 12.2455 15.622 12.2488C15.6123 12.2536 15.6026 12.2585 15.5937 12.2641C15.5873 12.2682 15.58 12.2722 15.5735 12.2763C15.5638 12.2819 15.5549 12.2884 15.546 12.2949C15.542 12.2973 15.5387 12.2997 15.5347 12.3021C15.5323 12.3046 15.5298 12.307 15.5266 12.3086C15.5185 12.3151 15.5104 12.3215 15.5024 12.3288C15.4959 12.3345 15.4894 12.3401 15.4829 12.3466C15.4765 12.3531 15.47 12.3596 15.4635 12.366C15.4571 12.3733 15.4498 12.3806 15.4441 12.3879C15.4385 12.3943 15.4336 12.4008 15.4288 12.4073C15.4223 12.4153 15.4166 12.4234 15.4102 12.4315C15.4053 12.4388 15.4013 12.4453 15.3964 12.4525C15.3916 12.4606 15.3859 12.4687 15.3811 12.4776C15.3762 12.4857 15.3722 12.4946 15.3681 12.5027C15.3641 12.5108 15.36 12.518 15.3568 12.5261C15.3528 12.5358 15.3487 12.5455 15.3455 12.5552C15.3431 12.5625 15.3398 12.5698 15.3374 12.5771C15.3342 12.5876 15.3309 12.5981 15.3285 12.6086C15.3269 12.6159 15.3245 12.6232 15.3228 12.6304C15.3204 12.6401 15.3188 12.6507 15.3172 12.6612C15.3156 12.6693 15.3139 12.6781 15.3131 12.6862C15.3123 12.6951 15.3115 12.7048 15.3107 12.7137C15.3099 12.7234 15.3091 12.7339 15.3091 12.7436C15.3091 12.7477 15.3083 12.7509 15.3083 12.755V16.6306C15.3083 16.9452 15.5638 17.2007 15.8784 17.2007C16.1929 17.2007 16.4484 16.9452 16.4484 16.6306V14.4498L18.3632 16.9751C18.3648 16.9775 18.3673 16.9792 18.3689 16.9816C18.3786 16.9937 18.3891 17.0058 18.3996 17.0172C18.4037 17.0212 18.4069 17.0261 18.4109 17.0301C18.4255 17.0447 18.44 17.0584 18.4554 17.0713C18.4595 17.0746 18.4643 17.0778 18.4683 17.081C18.4805 17.0899 18.4926 17.0996 18.5047 17.1077C18.5112 17.1118 18.5177 17.1158 18.5241 17.1199C18.5355 17.1263 18.5468 17.1328 18.5589 17.1393C18.5654 17.1425 18.5719 17.1457 18.5783 17.149C18.5904 17.1546 18.6034 17.1603 18.6163 17.1651C18.622 17.1676 18.6285 17.17 18.6341 17.1716C18.6487 17.1765 18.6632 17.1805 18.6778 17.1845C18.6826 17.1862 18.6883 17.1878 18.6931 17.1886C18.7093 17.1918 18.7255 17.1951 18.7425 17.1967C18.7465 17.1975 18.7506 17.1983 18.7546 17.1983C18.7748 17.2007 18.7958 17.2015 18.8169 17.2015H18.8177C18.8444 17.2015 18.871 17.1991 18.8969 17.1951C18.9026 17.1942 18.9082 17.1934 18.9147 17.1926C18.9414 17.1878 18.9673 17.1821 18.9923 17.174C18.9956 17.1732 18.9988 17.1716 19.002 17.1708C19.0271 17.1619 19.0522 17.1514 19.0756 17.1401C19.078 17.1385 19.0805 17.1376 19.0829 17.1368C19.108 17.1231 19.1322 17.1077 19.1549 17.0907C19.1565 17.0891 19.1589 17.0883 19.1613 17.0867C19.1638 17.0851 19.1662 17.0827 19.1686 17.0802C19.1775 17.0738 19.1856 17.0665 19.1937 17.0592C19.2001 17.0536 19.2066 17.0479 19.2123 17.0422C19.2195 17.0358 19.226 17.0285 19.2325 17.0212C19.239 17.0147 19.2454 17.0075 19.2511 17.0002C19.2567 16.9937 19.2624 16.9864 19.2673 16.98C19.2729 16.9719 19.2794 16.9646 19.285 16.9565C19.2899 16.9492 19.2948 16.942 19.2996 16.9339C19.3045 16.9258 19.3093 16.9177 19.3142 16.9096C19.319 16.9007 19.3231 16.8918 19.3279 16.8837C19.3319 16.8765 19.3352 16.8692 19.3384 16.8611C19.3425 16.8514 19.3465 16.8409 19.3505 16.8312C19.353 16.8239 19.3562 16.8174 19.3586 16.8102C19.3619 16.7996 19.3651 16.7891 19.3675 16.7786C19.3691 16.7713 19.3716 16.7641 19.3732 16.7568C19.3756 16.7463 19.3772 16.7366 19.3788 16.7261C19.3805 16.718 19.3813 16.7091 19.3829 16.701C19.3837 16.6921 19.3845 16.6824 19.3853 16.6735C19.3861 16.6638 19.3869 16.6533 19.3869 16.6436C19.3869 16.6395 19.3877 16.6363 19.3877 16.6323V12.7582V12.7582Z" fill="#CCCCCC"/>
<path d="M22.6096 15.2658C22.9242 15.2658 23.1797 15.0103 23.1797 14.6957C23.1797 14.3812 22.9242 14.1257 22.6096 14.1257H21.1808V13.3276H22.642C22.9565 13.3276 23.212 13.072 23.212 12.7575C23.212 12.4429 22.9565 12.1874 22.642 12.1874H20.6431C20.6374 12.1874 20.6326 12.1882 20.6269 12.1882C20.6212 12.1882 20.6164 12.1874 20.6107 12.1874C20.2962 12.1874 20.0406 12.4429 20.0406 12.7575V16.6332C20.0406 16.9477 20.2962 17.2032 20.6107 17.2032H22.6096C22.9242 17.2032 23.1797 16.9477 23.1797 16.6332C23.1797 16.3186 22.9242 16.0631 22.6096 16.0631H21.1808V15.265H22.6096V15.2658Z" fill="#CCCCCC"/>
</svg>
