<svg width="20" height="20" viewBox="0 0 20 20" fill="none" xmlns="http://www.w3.org/2000/svg">
<path d="M3.58398 17.0833C3.16732 17.0833 2.81315 16.9375 2.52148 16.6458C2.22982 16.3542 2.08398 16 2.08398 15.5833V6.91667C2.08398 6.5 2.22982 6.14583 2.52148 5.85417C2.81315 5.5625 3.16732 5.41667 3.58398 5.41667H7.08398V4C7.08398 3.58333 7.22982 3.22917 7.52148 2.9375C7.81315 2.64583 8.16732 2.5 8.58398 2.5H11.4173C11.834 2.5 12.1882 2.64583 12.4798 2.9375C12.7715 3.22917 12.9173 3.58333 12.9173 4V5.41667H16.4173C16.834 5.41667 17.1882 5.5625 17.4798 5.85417C17.7715 6.14583 17.9173 6.5 17.9173 6.91667V15.5833C17.9173 16 17.7715 16.3542 17.4798 16.6458C17.1882 16.9375 16.834 17.0833 16.4173 17.0833H3.58398ZM8.33398 5.41667H11.6673V4C11.6673 3.94444 11.6395 3.88889 11.584 3.83333C11.5284 3.77778 11.4729 3.75 11.4173 3.75H8.58398C8.52843 3.75 8.47287 3.77778 8.41732 3.83333C8.36176 3.88889 8.33398 3.94444 8.33398 4V5.41667ZM3.58398 15.8333H16.4173C16.4729 15.8333 16.5284 15.8056 16.584 15.75C16.6395 15.6944 16.6673 15.6389 16.6673 15.5833V6.91667C16.6673 6.86111 16.6395 6.80556 16.584 6.75C16.5284 6.69445 16.4729 6.66667 16.4173 6.66667H3.58398C3.52843 6.66667 3.47287 6.69445 3.41732 6.75C3.36176 6.80556 3.33398 6.86111 3.33398 6.91667V15.5833C3.33398 15.6389 3.36176 15.6944 3.41732 15.75C3.47287 15.8056 3.52843 15.8333 3.58398 15.8333ZM3.33398 15.8333V6.66667V15.8333Z" fill="#6F6F6F"/>
</svg>
