<svg width="29" height="29" viewBox="0 0 29 29" fill="none" xmlns="http://www.w3.org/2000/svg">
<path d="M22.0826 10.5333L20.8576 7.79164L18.1159 6.56664L20.8576 5.31248L22.0826 2.59998L23.3076 5.31248L26.0492 6.56664L23.3076 7.79164L22.0826 10.5333ZM22.0826 26.4L20.8576 23.6875L18.1159 22.4333L20.8576 21.2083L22.0826 18.4666L23.3076 21.2083L26.0492 22.4333L23.3076 23.6875L22.0826 26.4ZM10.8534 22.4333L8.40339 16.9791L2.94922 14.5L8.40339 12.0208L10.8534 6.56664L13.3326 12.0208L18.7867 14.5L13.3326 16.9791L10.8534 22.4333ZM10.8534 18.175L12.0201 15.6666L14.5284 14.5L12.0201 13.3333L10.8534 10.825L9.68672 13.3333L7.17839 14.5L9.68672 15.6666L10.8534 18.175Z" fill="#1DAFAA"/>
</svg>
