<svg width="24" height="24" viewBox="0 0 24 24" fill="none" xmlns="http://www.w3.org/2000/svg">
<path d="M5.42578 10.6249L7.62578 11.5499C7.89245 10.9999 8.18011 10.4749 8.48878 9.9749C8.79678 9.4749 9.13411 8.9749 9.50078 8.4749L8.05078 8.1999C7.98411 8.18323 7.93011 8.18323 7.88878 8.1999C7.84678 8.21657 7.80078 8.24157 7.75078 8.2749L5.42578 10.6249ZM8.82578 12.4999L11.6508 15.3249C12.4008 15.0082 13.1758 14.5749 13.9758 14.0249C14.7758 13.4749 15.5341 12.8416 16.2508 12.1249C17.3674 11.0082 18.2341 9.78723 18.8508 8.4619C19.4674 7.13723 19.7758 5.7749 19.7758 4.3749C18.3758 4.3749 17.0134 4.6789 15.6888 5.2869C14.3634 5.89557 13.1341 6.76657 12.0008 7.8999C11.2841 8.61657 10.6508 9.3749 10.1008 10.1749C9.55078 10.9749 9.12578 11.7499 8.82578 12.4999ZM13.6258 10.4999C13.2924 10.1499 13.1258 9.73323 13.1258 9.2499C13.1258 8.76657 13.2924 8.35823 13.6258 8.0249C13.9758 7.69157 14.3964 7.5249 14.8878 7.5249C15.3798 7.5249 15.7924 7.69157 16.1258 8.0249C16.4591 8.35823 16.6258 8.76657 16.6258 9.2499C16.6258 9.73323 16.4591 10.1499 16.1258 10.4999C15.7924 10.8332 15.3798 10.9999 14.8878 10.9999C14.3964 10.9999 13.9758 10.8332 13.6258 10.4999ZM13.5258 18.7249L15.8508 16.3999C15.9008 16.3499 15.9341 16.3039 15.9508 16.2619C15.9674 16.2206 15.9674 16.1666 15.9508 16.0999L15.6508 14.6499C15.1674 15.0166 14.6718 15.3499 14.1638 15.6499C13.6551 15.9499 13.1341 16.2416 12.6008 16.5249L13.5258 18.7249ZM21.1258 2.9999C21.3424 4.93323 21.1174 6.76223 20.4508 8.4869C19.7841 10.2122 18.6841 11.8416 17.1508 13.3749L17.0628 13.4619L16.9758 13.5499L17.4258 15.7999C17.4758 16.0999 17.4591 16.3959 17.3758 16.6879C17.2924 16.9792 17.1424 17.2249 16.9258 17.4249L13.0008 21.3499L11.1258 16.9249L7.20078 12.9999L2.80078 11.1249L6.70078 7.1999C6.90078 6.9999 7.14678 6.8539 7.43878 6.7619C7.73011 6.67057 8.02578 6.6499 8.32578 6.6999L10.6258 7.1749C10.6591 7.14157 10.6841 7.11257 10.7008 7.0879C10.7174 7.06257 10.7424 7.03323 10.7758 6.9999C12.3091 5.46657 13.9384 4.36223 15.6638 3.6869C17.3884 3.01223 19.2091 2.78323 21.1258 2.9999ZM4.52578 16.0749C5.00911 15.5916 5.60078 15.3456 6.30078 15.3369C7.00078 15.3289 7.59245 15.5749 8.07578 16.0749C8.57578 16.5582 8.82145 17.1499 8.81278 17.8499C8.80478 18.5499 8.55911 19.1416 8.07578 19.6249C7.69245 20.0082 7.07178 20.3332 6.21378 20.5999C5.35511 20.8666 4.24245 21.0832 2.87578 21.2499C3.04245 19.8999 3.26345 18.7959 3.53878 17.9379C3.81345 17.0792 4.14245 16.4582 4.52578 16.0749ZM5.60078 17.1249C5.41745 17.3082 5.24245 17.6206 5.07578 18.0619C4.90911 18.5039 4.79245 18.9499 4.72578 19.3999C5.19245 19.3499 5.64245 19.2416 6.07578 19.0749C6.50911 18.9082 6.81745 18.7332 7.00078 18.5499C7.20078 18.3499 7.30478 18.1082 7.31278 17.8249C7.32145 17.5416 7.22578 17.2999 7.02578 17.0999C6.82578 16.8999 6.58811 16.8039 6.31278 16.8119C6.03811 16.8206 5.80078 16.9249 5.60078 17.1249Z" fill="white"/>
</svg>
