<svg width="25" height="24" viewBox="0 0 25 24" fill="none" xmlns="http://www.w3.org/2000/svg">
<path fill-rule="evenodd" clip-rule="evenodd" d="M17.4741 8.73068L22.1947 6.97217C22.4382 6.88305 22.4655 6.55545 22.2416 6.42616L12.8681 1.04142C12.7717 0.986193 12.6532 0.986193 12.5568 1.04142L3.18463 6.42616C2.96065 6.55419 2.98799 6.88179 3.23151 6.97217L7.96774 8.73068C8.76601 7.3801 10.6282 6.12743 12.7131 6.12743C14.798 6.12743 16.6003 7.2822 17.4741 8.73068ZM8.54642 11.5021C8.54642 13.7197 10.4115 15.5174 12.7123 15.5174C15.013 15.5174 16.8781 13.7197 16.8781 11.5021C16.8781 9.28444 15.013 7.48672 12.7123 7.48672C10.4115 7.48672 8.54642 9.28444 8.54642 11.5021ZM5.3901 13.332H3.88081L4.37045 8.26986L5.18696 8.58491L5.3901 13.332ZM9.17974 16C6.98858 16.4917 4.76869 17.375 4.16896 18.5887C3.20731 20.5343 2.75 24 2.75 24H22.75C22.75 24 22.2927 20.5343 21.331 18.5887C20.7313 17.375 18.5114 16.4917 16.3203 16L13.2824 21.2987C13.0459 21.7116 12.4541 21.7116 12.2176 21.2987L9.17974 16Z" fill="#909090"/>
</svg>
