<svg width="25" height="24" viewBox="0 0 25 24" fill="none" xmlns="http://www.w3.org/2000/svg">
<path d="M4.8 20.5C4.3 20.5 3.875 20.325 3.525 19.975C3.175 19.625 3 19.2 3 18.7V8.3C3 7.8 3.175 7.375 3.525 7.025C3.875 6.675 4.3 6.5 4.8 6.5H9V4.8C9 4.3 9.175 3.875 9.525 3.525C9.875 3.175 10.3 3 10.8 3H14.2C14.7 3 15.125 3.175 15.475 3.525C15.825 3.875 16 4.3 16 4.8V6.5H20.2C20.7 6.5 21.125 6.675 21.475 7.025C21.825 7.375 22 7.8 22 8.3V18.7C22 19.2 21.825 19.625 21.475 19.975C21.125 20.325 20.7 20.5 20.2 20.5H4.8ZM10.5 6.5H14.5V4.8C14.5 4.73333 14.4667 4.66667 14.4 4.6C14.3333 4.53333 14.2667 4.5 14.2 4.5H10.8C10.7333 4.5 10.6667 4.53333 10.6 4.6C10.5333 4.66667 10.5 4.73333 10.5 4.8V6.5ZM4.8 19H20.2C20.2667 19 20.3333 18.9667 20.4 18.9C20.4667 18.8333 20.5 18.7667 20.5 18.7V8.3C20.5 8.23333 20.4667 8.16667 20.4 8.1C20.3333 8.03333 20.2667 8 20.2 8H4.8C4.73333 8 4.66667 8.03333 4.6 8.1C4.53333 8.16667 4.5 8.23333 4.5 8.3V18.7C4.5 18.7667 4.53333 18.8333 4.6 18.9C4.66667 18.9667 4.73333 19 4.8 19ZM4.5 19V8V19Z" fill="white"/>
</svg>
