<svg width="19" height="18" viewBox="0 0 19 18" fill="none" xmlns="http://www.w3.org/2000/svg">
<path d="M9.97148 16.125C9.82148 16.125 9.67473 16.0938 9.53123 16.0312C9.38723 15.9688 9.26523 15.8875 9.16523 15.7875L2.56523 9.1875C2.45273 9.075 2.36523 8.95 2.30273 8.8125C2.24023 8.675 2.20898 8.525 2.20898 8.3625V3C2.20898 2.6875 2.31848 2.422 2.53748 2.2035C2.75598 1.9845 3.02148 1.875 3.33398 1.875H8.69648C8.84648 1.875 8.99348 1.90625 9.13748 1.96875C9.28098 2.03125 9.40273 2.1125 9.50273 2.2125L16.1027 8.8125C16.3277 9.0375 16.4402 9.30925 16.4402 9.62775C16.4402 9.94675 16.334 10.2125 16.1215 10.425L10.759 15.7875C10.659 15.8875 10.5402 15.9688 10.4027 16.0312C10.2652 16.0938 10.1215 16.125 9.97148 16.125ZM9.95273 15L15.3152 9.6375L8.69648 3H3.33398V8.3625L9.95273 15ZM5.20898 5.8125C5.47148 5.8125 5.69348 5.72175 5.87498 5.54025C6.05598 5.35925 6.14648 5.1375 6.14648 4.875C6.14648 4.6125 6.05598 4.3905 5.87498 4.209C5.69348 4.028 5.47148 3.9375 5.20898 3.9375C4.94648 3.9375 4.72473 4.028 4.54373 4.209C4.36223 4.3905 4.27148 4.6125 4.27148 4.875C4.27148 5.1375 4.36223 5.35925 4.54373 5.54025C4.72473 5.72175 4.94648 5.8125 5.20898 5.8125Z" fill="#6F6F6F"/>
</svg>
