<svg width="32" height="32" viewBox="0 0 32 32" fill="none" xmlns="http://www.w3.org/2000/svg">
<rect width="32" height="32" rx="16" fill="#FDE02B"/>
<path d="M19.822 6H12.178C8.77121 6 6 8.77121 6 12.178V19.8212C6 23.2279 8.77121 26 12.178 26H19.8212C23.2279 26 25.9991 23.2288 25.9991 19.8212V12.178C26 8.77121 23.2288 6 19.822 6ZM23.7708 19.822C23.7708 21.9993 21.9993 23.7708 19.822 23.7708H12.178C10.0007 23.7708 8.22922 21.9993 8.22922 19.822V12.178C8.22922 10.0007 10.0007 8.22922 12.178 8.22922H19.8212C21.9985 8.22922 23.7699 10.0007 23.7699 12.178V19.822H23.7708Z" fill="#1DAFAA"/>
<path d="M16.0017 10.8882C13.1837 10.8882 10.8906 13.1812 10.8906 16.0001C10.8906 18.8189 13.1837 21.112 16.0017 21.112C18.8197 21.112 21.1127 18.8189 21.1127 16.0001C21.1127 13.1812 18.8205 10.8882 16.0017 10.8882ZM16.0017 19.1048C14.2898 19.1048 12.8969 17.712 12.8969 16.0001C12.8969 14.2882 14.2898 12.8953 16.0017 12.8953C17.7136 12.8953 19.1064 14.2882 19.1064 16.0001C19.1064 17.712 17.7136 19.1048 16.0017 19.1048Z" fill="#1DAFAA"/>
<path d="M21.3684 11.456C21.8458 11.456 22.2328 11.0689 22.2328 10.5915C22.2328 10.1141 21.8458 9.72705 21.3684 9.72705C20.8909 9.72705 20.5039 10.1141 20.5039 10.5915C20.5039 11.0689 20.8909 11.456 21.3684 11.456Z" fill="#1DAFAA"/>
</svg>
