<svg width="52" height="48" viewBox="0 0 52 48" fill="none" xmlns="http://www.w3.org/2000/svg">
<g clip-path="url(#clip0_690_731)">
<path d="M28.3468 42.4058C26.9732 42.4058 24.8754 41.9563 22.5279 39.8585L1.64963 23.5005L1.62465 23.4755C0.900407 22.8012 0.525798 21.8273 0.650667 20.8533C0.825485 19.2799 2.02424 18.1561 3.57262 18.0812C3.62257 18.0812 3.67252 18.0812 3.69749 18.0812C4.37179 18.0812 4.97117 18.281 5.5206 18.6805C6.16992 19.1301 6.86919 19.6046 7.51851 20.0541L7.66836 6.29345C7.66836 4.8949 8.79219 3.7461 10.1907 3.7461C10.2407 3.7461 10.2657 3.7461 10.3156 3.7461C11.1647 3.77107 11.889 4.2206 12.3385 4.86993L12.3635 3.12175C12.3635 1.72321 13.4873 0.574402 14.8609 0.574402C14.9358 0.574402 15.0107 0.574402 15.0856 0.574402C16.3843 0.674298 17.4332 1.77315 17.4332 3.09677V4.02081C17.8827 3.32154 18.6819 2.84703 19.556 2.84703C20.9545 2.84703 22.0783 3.97086 22.0783 5.36941L22.0034 8.7409C22.378 7.79188 23.2771 7.11759 24.326 7.11759C24.4009 7.11759 24.4759 7.11759 24.5508 7.11759C25.8494 7.21748 26.8983 8.31634 26.8983 9.63996L26.4488 22.2518L31.5685 32.1165C34.5154 36.6368 33.5914 39.3091 32.2927 40.7575C31.3687 41.8064 29.9452 42.4058 28.3468 42.4058Z" fill="#FCCF00"/>
<g clip-path="url(#clip1_690_731)">
<path d="M21.2646 22.6853L19.4551 19.8693" stroke="white" stroke-width="1.5" stroke-linecap="round" stroke-linejoin="round"/>
<path d="M16.8948 29.33L19.896 28.1844" stroke="white" stroke-width="1.5" stroke-linecap="round" stroke-linejoin="round"/>
<path d="M17.0156 24.1937L20.0703 25.2255" stroke="white" stroke-width="1.5" stroke-linecap="round" stroke-linejoin="round"/>
</g>
<path d="M14.8352 1.2487C14.8852 1.2487 14.9351 1.2487 15.01 1.2487C16.009 1.32362 16.7832 2.14776 16.7832 3.14672L16.6333 16.1332L17.4325 16.1582L17.6073 5.4693C17.6073 4.39542 18.4564 3.52133 19.5303 3.52133C20.5792 3.52133 21.4283 4.37045 21.4283 5.41935L21.2535 16.2081L22.3274 16.2331L22.4523 9.66493C22.4523 8.59105 23.2764 7.74194 24.3253 7.74194C24.3753 7.74194 24.4502 7.74194 24.5001 7.74194C25.4991 7.81686 26.2733 8.641 26.2733 9.63996L25.8238 22.4017L31.0433 32.4412C33.8404 36.7118 32.9663 39.1093 31.8425 40.358C31.0933 41.1821 29.8696 41.7815 28.3461 41.7815C26.7478 41.7815 24.8498 41.1322 22.9268 39.384L2.04853 23.026C1.44915 22.4766 1.17444 21.7024 1.27434 20.9532C1.39921 19.8293 2.22335 18.7804 3.59692 18.7305C3.64686 18.7305 3.67184 18.7305 3.69681 18.7305C4.24624 18.7305 4.74572 18.9053 5.17028 19.205C6.26913 19.9542 7.31804 20.6785 8.14218 21.2529L8.29203 6.31842C8.29203 5.26951 9.11617 4.39542 10.19 4.39542C10.215 4.39542 10.24 4.39542 10.265 4.39542C11.2889 4.4204 12.113 5.26951 12.113 6.29344L11.9882 16.0333L12.8123 16.0583L12.9622 3.1717C12.9622 2.12279 13.8113 1.2487 14.8352 1.2487ZM14.8352 0C13.112 0 11.7135 1.42352 11.7135 3.1717V3.54631C11.2889 3.32154 10.8144 3.1717 10.3149 3.1717C10.265 3.1717 10.215 3.1717 10.19 3.1717C8.46684 3.1717 7.0683 4.59521 7.04333 6.34339L6.91846 18.9303C6.56882 18.7055 6.21919 18.4558 5.89452 18.231C5.22023 17.7315 4.49598 17.4818 3.69681 17.4818C3.64686 17.4818 3.59692 17.4818 3.52199 17.4818C1.69889 17.5567 0.250402 18.9303 0.0256366 20.8033C-0.124207 21.9521 0.30035 23.1259 1.19941 23.9501L1.22439 23.975L1.27434 24L22.1276 40.333C24.625 42.5557 26.8976 43.0052 28.3461 43.0052C30.1193 43.0052 31.7176 42.3309 32.7665 41.1821C33.6656 40.1831 34.1401 38.9095 34.1651 37.5359C34.1651 35.8377 33.4908 33.9147 32.1172 31.8169L27.0725 22.127L27.522 9.68991V9.66493V9.63996C27.522 7.99167 26.2483 6.61811 24.6 6.49324C24.5001 6.49324 24.4252 6.49324 24.3253 6.49324C23.701 6.49324 23.1266 6.66805 22.6521 6.99272L22.677 5.44433C22.677 3.72112 21.2535 2.29761 19.5303 2.29761C18.9809 2.29761 18.4564 2.44745 18.0069 2.69719C17.7821 1.2487 16.5834 0.12487 15.1099 0C15.01 0 14.9351 0 14.8352 0Z" fill="white"/>
<path d="M10.6651 16.7825C10.5901 16.7825 10.5402 16.7326 10.5152 16.6826C10.4903 16.6077 10.5152 16.5328 10.5901 16.4828C10.6151 16.4579 14.1864 14.8346 17.408 14.9594C20.6547 15.1093 23.5766 16.4329 23.6266 16.4579C23.7015 16.4828 23.7265 16.5578 23.7015 16.6327C23.6765 16.7076 23.6016 16.7576 23.5267 16.7326C23.4517 16.7326 15.6848 15.5838 10.6651 16.7326C10.69 16.7825 10.6651 16.7825 10.6651 16.7825Z" fill="white"/>
<path d="M22.7751 47.3756C22.5753 47.3756 22.3755 47.3756 22.2007 47.3507C18.6044 47.051 15.9322 43.8793 16.2319 40.258C16.3318 39.0593 16.7813 37.9105 17.4806 36.9365L23.5992 28.2705L26.5711 10.3892C26.696 9.01559 27.8448 7.99166 29.2184 7.99166C29.3433 7.99166 29.4432 7.99166 29.568 8.01664C30.542 8.14151 31.2413 8.84078 31.491 9.78979L32.1653 6.39333C32.2902 5.01976 33.414 3.99582 34.8126 3.99582C34.9624 3.99582 35.1123 4.0208 35.2621 4.04577C36.1362 4.22059 36.7855 4.77002 37.1351 5.51924V5.49426C37.26 4.17064 38.4338 3.12173 39.7824 3.12173C39.8823 3.12173 39.9822 3.12173 40.0821 3.14671C41.5056 3.29655 42.5545 4.62017 42.4296 6.04369V6.06866L41.3308 11.9376L42.0051 8.59104C42.3547 7.14255 43.3537 6.24348 44.6273 6.24348C44.7772 6.24348 44.927 6.26846 45.1019 6.29343C46.4504 6.5182 47.4244 7.79187 47.2996 9.16544V9.19041L44.8521 21.5775C45.2767 21.2029 45.7512 20.7284 46.2257 20.2539C46.9499 19.5296 47.849 19.3548 48.4733 19.3548H48.5233C49.1726 19.3548 49.797 19.6295 50.2715 20.104C50.7959 20.6285 51.0956 21.3777 51.0956 22.1269C51.0956 23.5005 49.772 24.7242 49.6221 24.8741L27.7699 45.078C27.7449 45.103 27.72 45.153 27.67 45.1779C26.4463 46.5765 24.6482 47.3756 22.7751 47.3756Z" fill="#2AB5AF"/>
<path d="M39.783 3.77107C39.8579 3.77107 39.9328 3.77107 40.0077 3.79604C41.1066 3.92091 41.9058 4.91987 41.8059 6.01873L39.3834 19.0302L40.5072 19.1301L42.63 8.74089C42.9047 7.61706 43.6539 6.89282 44.6529 6.89282C44.7778 6.89282 44.9026 6.89282 45.0025 6.91779C46.0514 7.09261 46.7757 8.06659 46.6758 9.1155L43.8787 23.3007C43.8787 23.3007 45.2023 22.1769 46.6758 20.7034C47.2002 20.179 47.8745 20.0042 48.4989 19.9792C48.5239 19.9792 48.5239 19.9792 48.5488 19.9792C49.5977 19.9792 50.4968 20.9532 50.4968 22.1269C50.4968 23.076 49.5977 24.0749 49.2231 24.3996L27.296 44.6785C27.296 44.7034 27.271 44.7034 27.271 44.7034C26.1721 45.9771 24.5488 46.7763 22.7757 46.7763C22.6009 46.7763 22.4261 46.7763 22.2512 46.7513C18.9796 46.4516 16.5821 43.5796 16.8569 40.308C16.9567 39.1842 17.3563 38.1602 17.9807 37.3111L24.1992 28.5203L27.1961 10.4641C27.296 9.41519 28.195 8.61602 29.219 8.61602C29.3189 8.61602 29.3938 8.61602 29.4937 8.641C30.4677 8.76587 31.0421 9.66493 30.9422 10.7388L29.5686 18.1561L30.4427 18.231L32.7903 6.49323C32.8902 5.41935 33.7892 4.64516 34.8131 4.64516C34.938 4.64516 35.0379 4.64516 35.1628 4.67013C36.2117 4.86992 36.836 5.84391 36.7361 6.89282L34.4885 18.5557L35.3376 18.6306L37.7601 5.59417C37.86 4.54526 38.7341 3.77107 39.783 3.77107ZM39.783 2.52237C38.5592 2.52237 37.4854 3.19667 36.911 4.2206C36.4864 3.84599 35.9869 3.57128 35.3876 3.47138C35.2127 3.44641 35.0129 3.42143 34.8381 3.42143C33.1399 3.42143 31.7663 4.67013 31.5915 6.34339L31.2419 8.14152C30.8173 7.76691 30.2929 7.51717 29.6935 7.44224C29.5436 7.41727 29.4188 7.41727 29.2689 7.41727C27.5707 7.41727 26.1721 8.66597 25.9973 10.3392L23.0504 28.0708L17.0067 36.6119C16.2325 37.6608 15.758 38.9095 15.6581 40.2331C15.5083 42.1561 16.0827 44.0042 17.3064 45.4776C18.5301 46.9511 20.2783 47.8502 22.1763 48C22.3761 48.025 22.6009 48.025 22.8007 48.025C24.8485 48.025 26.7965 47.1509 28.1451 45.6275C28.1701 45.6025 28.22 45.5525 28.245 45.5276L50.0723 25.3486C50.347 25.0989 51.7455 23.7503 51.7455 22.1519C51.7455 21.2279 51.3709 20.3288 50.7466 19.6795C50.1472 19.0801 49.373 18.7555 48.5488 18.7555C48.5239 18.7555 48.4989 18.7555 48.4739 18.7555C47.45 18.7804 46.526 19.1301 45.8517 19.8044L47.8995 9.39021V9.34027V9.29032C48.0743 7.59209 46.8756 6.01873 45.1774 5.74401C45.0025 5.71904 44.8027 5.69407 44.603 5.69407C44.0286 5.69407 43.4791 5.84391 43.0046 6.11862C43.1295 4.37044 41.8308 2.79708 40.1076 2.59729C40.0327 2.52237 39.9078 2.52237 39.783 2.52237Z" fill="white"/>
</g>
<defs>
<clipPath id="clip0_690_731">
<rect width="51.7211" height="48" fill="white"/>
</clipPath>
<clipPath id="clip1_690_731">
<rect width="5.5" height="11" fill="white" transform="translate(16.6484 19) rotate(3.3804)"/>
</clipPath>
</defs>
</svg>
