<svg width="231" height="66" viewBox="24 0 231 66" fill="none" xmlns="http://www.w3.org/2000/svg">
<path d="M155.98 48.91C155.91 50.24 155.91 55.05 151.83 57.13C152.06 57.3 152.31 57.53 152.44 57.72C156.58 55.47 156.73 50.48 156.81 48.91H155.98ZM156.78 49.11L156.06 49.18C156.13 50.1 156.41 55.69 160.65 57.72C160.77 57.51 161 57.26 161.22 57.09C157.1 55.2 156.81 49.89 156.78 49.11ZM167.81 48.6L167.86 56.75C167.87 56.96 167.79 57.02 167.58 57.03C167.37 57.03 166.63 57.04 165.88 57.03C166 57.24 166.14 57.6 166.18 57.82C167.14 57.81 167.79 57.79 168.14 57.67C168.51 57.53 168.65 57.3 168.64 56.74L168.59 48.59L167.81 48.6ZM163.66 50.55V51.29H172.37V50.55H163.66ZM170.77 51.8C169.23 53.41 166.19 54.85 163.33 55.58C163.46 55.75 163.66 56.08 163.75 56.26C166.69 55.46 169.65 54.01 171.49 52.25L170.77 51.8ZM174.89 50.67V51.37H177.91V50.67H174.89ZM176.26 48.61C175.96 50.48 175.42 53.13 175.02 54.64L175.62 55.01C176.05 53.34 176.62 50.66 176.98 48.68L176.26 48.61ZM175.36 54.29C176.34 55 177.48 56.04 178 56.77L178.45 56.18C177.92 55.48 176.75 54.48 175.77 53.79L175.36 54.29ZM177.65 50.67V50.82C177.45 54.19 176.51 56.31 174.97 57.2C175.13 57.35 175.33 57.62 175.43 57.8C177.15 56.69 178.11 54.56 178.34 50.72L177.9 50.65L177.78 50.67H177.65ZM178.21 49.7V50.35H184.06V49.7H178.21ZM178.29 54.25V54.9H184.06V54.25H178.29ZM179.63 51.24V51.83H182.63V51.24H179.63ZM179.26 48.6V53.36H183.05V48.6H182.34V52.74H179.96V48.6H179.26ZM180.77 53.26V57.8H181.5V53.26H180.77ZM180.54 54.55C180 55.54 178.94 56.51 177.9 56.97C178.06 57.11 178.3 57.38 178.42 57.56C179.47 57 180.54 55.91 181.13 54.77L180.54 54.55ZM181.72 54.58L181.18 54.8C181.74 55.84 182.78 56.94 183.68 57.51C183.8 57.32 184.04 57.05 184.21 56.92C183.3 56.45 182.27 55.49 181.72 54.58ZM188.48 51.87V52.54H193.53V51.87H188.48ZM188.3 56.73V57.4H193.66V56.73H188.3ZM187.96 53.8V57.81H188.69V54.48H193.32V57.81H194.08V53.8H187.96ZM190.97 49.37C191.91 50.65 193.67 52.06 195.24 52.88C195.37 52.66 195.55 52.4 195.74 52.22C194.14 51.51 192.39 50.12 191.31 48.63H190.55C189.76 49.92 188.09 51.45 186.33 52.34C186.5 52.5 186.7 52.77 186.8 52.94C188.51 52.01 190.15 50.59 190.97 49.37ZM198.54 49.28V50.02H206.42V49.28H198.54ZM198.02 53.53V54.28H206.99V53.53H198.02ZM199.24 50.71C199.62 51.45 200.01 52.42 200.15 53.01L200.87 52.77C200.73 52.18 200.32 51.23 199.91 50.5L199.24 50.71ZM205.04 50.46C204.8 51.18 204.33 52.21 203.96 52.84L204.6 53.05C204.99 52.45 205.46 51.49 205.84 50.68L205.04 50.46ZM202.09 49.57V57.8H202.86V49.57H202.09ZM211.15 56.63V57.36H216.78V56.63H211.15ZM210.81 53.54V57.8H211.57V54.26H216.39V57.78H217.18V53.54H210.81ZM212.82 48.57C212.36 49.64 211.54 51.11 210.88 52L211.53 52.28C212.2 51.4 213.04 50.02 213.64 48.86L212.82 48.57ZM215.22 50.19C216.25 51.03 217.39 52.24 217.89 53.07L218.53 52.57C218.01 51.74 216.83 50.56 215.81 49.75L215.22 50.19ZM209.63 51.67L209.68 52.44C211.59 52.36 214.61 52.23 217.42 52.08L217.46 51.36C214.61 51.49 211.53 51.62 209.63 51.67Z" fill="white"/>
<path d="M129.006 26.0116C128.336 26.0116 127.761 25.768 127.271 25.2809C126.78 24.7938 126.535 24.213 126.535 23.5572C126.535 22.9015 126.78 22.3113 127.271 21.8148C127.761 21.3184 128.336 21.0654 129.006 21.0654C129.694 21.0654 130.288 21.3184 130.778 21.8148C131.268 22.3113 131.514 22.8921 131.514 23.5572C131.514 24.2223 131.268 24.7938 130.778 25.2809C130.278 25.768 129.694 26.0116 129.006 26.0116ZM126.997 42.8828V30.6017C126.997 29.4963 127.902 28.597 129.015 28.597C130.128 28.597 131.033 29.4963 131.033 30.6017V38.864C131.042 41.0842 129.232 42.8828 126.997 42.8828Z" fill="white"/>
<path d="M143.408 29.1594C145.246 29.1594 146.736 30.6395 146.736 32.4662V41.4404C146.736 43.4639 146.067 45.0189 144.718 46.0774C143.37 47.1454 141.748 47.6793 139.853 47.6793C138.429 47.6793 137.175 47.4077 136.091 46.8643C135.007 46.321 134.177 45.5247 133.592 44.4756L133.8 44.3538C135.11 43.6044 136.676 43.6699 138.062 44.2882C138.599 44.5318 139.231 44.6536 139.957 44.6536C141.032 44.6536 141.871 44.3725 142.493 43.8105C143.106 43.2484 143.417 42.4521 143.417 41.4217V40.0072C142.418 41.3374 141.003 42.0025 139.193 42.0025C137.326 42.0025 135.77 41.3468 134.507 40.054C133.253 38.7519 132.621 37.1688 132.621 35.2952C132.621 33.4404 133.253 31.8573 134.516 30.5458C135.78 29.2344 137.336 28.5786 139.184 28.5786C140.994 28.5786 142.399 29.2437 143.408 30.5739V29.1594ZM137.062 37.8901C137.76 38.5646 138.637 38.9018 139.712 38.9018C140.787 38.9018 141.673 38.5646 142.361 37.8901C143.059 37.2156 143.408 36.3538 143.408 35.3046C143.408 34.2742 143.059 33.4217 142.361 32.7472C141.663 32.0728 140.787 31.7355 139.712 31.7355C138.637 31.7355 137.75 32.0728 137.062 32.7472C136.364 33.4217 136.025 34.2742 136.025 35.3046C136.015 36.3538 136.364 37.2156 137.062 37.8901Z" fill="white"/>
<path d="M183.818 26.0116C183.149 26.0116 182.573 25.768 182.083 25.2809C181.593 24.7938 181.348 24.213 181.348 23.5572C181.348 22.9015 181.593 22.3113 182.083 21.8148C182.573 21.3184 183.149 21.0654 183.818 21.0654C184.506 21.0654 185.1 21.3184 185.591 21.8148C186.081 22.3113 186.326 22.8921 186.326 23.5572C186.326 24.2223 186.081 24.7938 185.591 25.2809C185.1 25.768 184.516 26.0116 183.818 26.0116ZM181.819 42.8828V30.6017C181.819 29.4963 182.724 28.597 183.837 28.597C184.95 28.597 185.855 29.4963 185.855 30.6017V38.864C185.855 41.0842 184.054 42.8828 181.819 42.8828Z" fill="white"/>
<path d="M196.038 28.166C197.613 28.166 198.914 28.6906 199.942 29.7398C200.969 30.789 201.478 32.241 201.478 34.0864V39.1824C201.478 41.2246 199.819 42.8733 197.763 42.8733V34.5454C197.763 33.5899 197.509 32.8592 196.981 32.3534C196.462 31.8475 195.774 31.5946 194.907 31.5946C193.945 31.5946 193.181 31.8944 192.606 32.4845C192.031 33.0747 191.738 33.9646 191.738 35.1449V42.8733C189.683 42.8733 188.023 41.2246 188.023 39.1824V32.2597C188.023 30.2175 189.683 28.5688 191.738 28.5688V30.1707C192.644 28.8405 194.077 28.166 196.038 28.166Z" fill="white"/>
<path d="M156.351 28.1663C157.925 28.1663 159.226 28.6909 160.254 29.74C161.282 30.7892 161.791 32.2412 161.791 34.0867V39.1827C161.791 41.2248 160.132 42.8735 158.076 42.8735V34.5457C158.076 33.5902 157.821 32.8595 157.293 32.3536C156.775 31.8478 156.087 31.5948 155.219 31.5948C154.257 31.5948 153.494 31.8946 152.918 32.4848C152.343 33.0749 152.051 33.9649 152.051 35.1452V42.8735C149.995 42.8735 148.336 41.2248 148.336 39.1827V24.6909C148.336 22.6487 149.995 21 152.051 21V28.5691V30.171C152.966 28.8408 154.389 28.1663 156.351 28.1663Z" fill="white"/>
<path d="M214.907 22.8457C216.962 22.8457 218.622 24.4944 218.622 26.5366V39.1829C218.622 41.2251 216.962 42.8738 214.907 42.8738V41.1876C213.813 42.5834 212.257 43.2766 210.239 43.2766C208.297 43.2766 206.647 42.5459 205.27 41.0846C203.894 39.6232 203.215 37.834 203.215 35.7169C203.215 33.5998 203.903 31.8106 205.27 30.3492C206.647 28.8879 208.297 28.1572 210.239 28.1572C212.257 28.1572 213.813 28.8504 214.907 30.2462V22.8457ZM208.071 38.6302C208.825 39.3797 209.787 39.7637 210.937 39.7637C212.087 39.7637 213.04 39.389 213.785 38.6302C214.53 37.8808 214.907 36.9066 214.907 35.7263C214.907 34.5459 214.53 33.5717 213.785 32.8223C213.04 32.0729 212.087 31.6888 210.937 31.6888C209.787 31.6888 208.825 32.0635 208.071 32.8223C207.316 33.5717 206.93 34.5459 206.93 35.7263C206.93 36.9066 207.307 37.8808 208.071 38.6302Z" fill="white"/>
<path d="M111.29 28.9721H119.437V24.8034C119.437 22.7519 121.115 21.0845 123.18 21.0845H123.765V42.8737C121.379 42.8737 119.437 40.9533 119.437 38.5739V33.0845H111.29V42.8831C108.923 42.8831 107 40.9721 107 38.6208V25.3561C107 22.9955 108.923 21.0845 111.29 21.0845V28.9721Z" fill="white"/>
<path d="M176.265 25.1969H171.23V29.5997V33.7121V42.8831C168.845 42.8831 166.902 40.9627 166.902 38.5833V21.0845H179.999V21.4779C180.009 23.5294 178.33 25.1969 176.265 25.1969Z" fill="white"/>
<path d="M176.821 33.0841H169.844V28.9717H179.405V30.5173C179.405 31.9319 178.245 33.0841 176.821 33.0841Z" fill="white"/>
<g clip-path="url(#clip0_772_9853)">
<path d="M61.0781 55.0071C59.3784 55.0071 56.7825 54.4451 53.8777 51.8229L28.0428 31.3754L28.0119 31.3442C27.1157 30.5013 26.6522 29.2838 26.8067 28.0664C27.023 26.0997 28.5063 24.6949 30.4223 24.6012C30.4841 24.6012 30.5459 24.6012 30.5768 24.6012C31.4112 24.6012 32.1529 24.851 32.8328 25.3504C33.6362 25.9124 34.5015 26.5055 35.305 27.0674L35.4904 9.86658C35.4904 8.1184 36.881 6.68239 38.6116 6.68239C38.6734 6.68239 38.7043 6.68239 38.7661 6.68239C39.8168 6.71361 40.713 7.27553 41.2693 8.08718L41.3002 5.90196C41.3002 4.15378 42.6908 2.71777 44.3905 2.71777C44.4832 2.71777 44.5759 2.71777 44.6686 2.71777C46.2755 2.84264 47.5735 4.21621 47.5735 5.87074V7.02579C48.1297 6.1517 49.1186 5.55856 50.2002 5.55856C51.9308 5.55856 53.3214 6.96335 53.3214 8.71153L53.2287 12.9259C53.6922 11.7396 54.8048 10.8968 56.1027 10.8968C56.1954 10.8968 56.2881 10.8968 56.3808 10.8968C57.9878 11.0216 59.2857 12.3952 59.2857 14.0497L58.7294 29.8145L65.0645 42.1455C68.7111 47.7958 67.5677 51.1361 65.9607 52.9467C64.8173 54.2578 63.0558 55.0071 61.0781 55.0071Z" fill="#FCCF00"/>
<path d="M44.3581 3.56087C44.4199 3.56087 44.4817 3.56087 44.5744 3.56087C45.8105 3.65453 46.7685 4.6847 46.7685 5.9334L46.5831 22.1665L47.572 22.1977L47.7883 8.83663C47.7883 7.49428 48.839 6.40167 50.1679 6.40167C51.4658 6.40167 52.5165 7.46306 52.5165 8.77419L52.3002 22.2601L53.629 22.2914L53.7835 14.0812C53.7835 12.7388 54.8033 11.6774 56.1012 11.6774C56.163 11.6774 56.2557 11.6774 56.3175 11.6774C57.5537 11.7711 58.5116 12.8012 58.5116 14.0499L57.9554 30.0021L64.4141 42.5515C67.8752 47.8897 66.7936 50.8866 65.403 52.4475C64.4759 53.4776 62.9617 54.2268 61.0766 54.2268C59.0988 54.2268 56.7502 53.4152 54.3707 51.23L28.5358 30.7825C27.7941 30.0957 27.4542 29.128 27.5778 28.1915C27.7323 26.7867 28.7521 25.4755 30.4518 25.4131C30.5136 25.4131 30.5445 25.4131 30.5754 25.4131C31.2552 25.4131 31.8733 25.6316 32.3987 26.0062C33.7584 26.9428 35.0563 27.8481 36.0761 28.5661L36.2615 9.89802C36.2615 8.58689 37.2813 7.49428 38.6101 7.49428C38.6411 7.49428 38.672 7.49428 38.7029 7.49428C39.9699 7.52549 40.9897 8.58689 40.9897 9.86681L40.8352 22.0416L41.855 22.0728L42.0404 5.96462C42.0404 4.65349 43.0911 3.56087 44.3581 3.56087ZM44.3581 2C42.2258 2 40.4952 3.7794 40.4952 5.96462V6.43288C39.9699 6.15193 39.3827 5.96462 38.7647 5.96462C38.7029 5.96462 38.6411 5.96462 38.6101 5.96462C36.4778 5.96462 34.7473 7.74402 34.7164 9.92924L34.5619 25.6629C34.1292 25.3819 33.6966 25.0697 33.2948 24.7888C32.4605 24.1644 31.5643 23.8522 30.5754 23.8522C30.5136 23.8522 30.4518 23.8522 30.3591 23.8522C28.1031 23.9459 26.3108 25.6629 26.0327 28.0042C25.8472 29.4402 26.3726 30.9074 27.4851 31.9376L27.516 31.9688L27.5778 32L53.3818 52.4162C56.4721 55.1946 59.2842 55.7565 61.0766 55.7565C63.2707 55.7565 65.2485 54.9136 66.5464 53.4776C67.6589 52.2289 68.2461 50.6368 68.277 48.9199C68.277 46.7971 67.4426 44.3933 65.7429 41.7711L59.5005 29.6587L60.0568 14.1124V14.0812V14.0499C60.0568 11.9896 58.4807 10.2726 56.4411 10.1165C56.3175 10.1165 56.2248 10.1165 56.1012 10.1165C55.3286 10.1165 54.6179 10.3351 54.0307 10.7409L54.0616 8.80541C54.0616 6.6514 52.3002 4.87201 50.1679 4.87201C49.488 4.87201 48.839 5.05931 48.2828 5.37149C48.0046 3.56087 46.5213 2.15609 44.698 2C44.5744 2 44.4817 2 44.3581 2Z" fill="white"/>
<path d="M39.197 22.9779C39.1043 22.9779 39.0425 22.9154 39.0116 22.853C38.9807 22.7593 39.0116 22.6657 39.1043 22.6033C39.1352 22.572 43.5543 20.5429 47.5408 20.699C51.5582 20.8863 55.1738 22.5408 55.2356 22.572C55.3283 22.6033 55.3592 22.6969 55.3283 22.7906C55.2974 22.8842 55.2047 22.9467 55.112 22.9154C55.0193 22.9154 45.4085 21.4794 39.197 22.9154C39.2279 22.9779 39.197 22.9779 39.197 22.9779Z" fill="white"/>
<path d="M54.1835 61.2197C53.9363 61.2197 53.6891 61.2197 53.4728 61.1885C49.0228 60.8139 45.7161 56.8493 46.087 52.3227C46.2106 50.8243 46.7668 49.3883 47.6321 48.1708L55.2033 37.3383L58.8808 14.9866C59.0353 13.2697 60.4568 11.9898 62.1565 11.9898C62.311 11.9898 62.4346 11.9898 62.5891 12.021C63.7944 12.1771 64.6596 13.0511 64.9687 14.2374L65.8031 9.99183C65.9576 8.27487 67.3482 6.99496 69.0788 6.99496C69.2642 6.99496 69.4496 7.02617 69.635 7.05739C70.7166 7.27591 71.5201 7.9627 71.9527 8.89922V8.868C72.1073 7.21348 73.5597 5.90234 75.2285 5.90234C75.3521 5.90234 75.4757 5.90234 75.5993 5.93356C77.3608 6.12087 78.6587 7.77539 78.5042 9.55479V9.58601L77.1444 16.9221L77.9788 12.739C78.4115 10.9284 79.6476 9.80453 81.2236 9.80453C81.409 9.80453 81.5945 9.83575 81.8108 9.86696C83.4795 10.1479 84.6847 11.74 84.5302 13.457V13.4882L81.5018 28.9721C82.0271 28.5038 82.6143 27.9107 83.2014 27.3175C84.0976 26.4122 85.2101 26.1937 85.9827 26.1937H86.0445C86.848 26.1937 87.6205 26.5371 88.2077 27.1302C88.8567 27.7858 89.2275 28.7223 89.2275 29.6588C89.2275 31.3758 87.5896 32.9055 87.4042 33.0928L60.3641 58.3477C60.3332 58.3789 60.3023 58.4414 60.2405 58.4726C58.7263 60.2208 56.5013 61.2197 54.1835 61.2197Z" fill="#2AB5AF"/>
<path d="M75.2288 6.71371C75.3215 6.71371 75.4142 6.71371 75.5069 6.74492C76.8666 6.90101 77.8555 8.14971 77.7319 9.52328L74.7343 25.7876L76.125 25.9125L78.7517 12.926C79.0916 11.5212 80.0187 10.6159 81.2549 10.6159C81.4094 10.6159 81.5639 10.6159 81.6875 10.6471C82.9854 10.8656 83.8816 12.0831 83.758 13.3942L80.2969 31.1258C80.2969 31.1258 81.9347 29.721 83.758 27.8792C84.407 27.2236 85.2413 27.0051 86.0139 26.9739C86.0448 26.9739 86.0448 26.9739 86.0757 26.9739C87.3736 26.9739 88.4861 28.1913 88.4861 29.6586C88.4861 30.8448 87.3736 32.0935 86.9101 32.4993L59.7773 57.8479C59.7773 57.8792 59.7464 57.8792 59.7464 57.8792C58.3867 59.4712 56.378 60.4702 54.1839 60.4702C53.9675 60.4702 53.7512 60.4702 53.5349 60.439C49.4866 60.0644 46.5199 56.4744 46.8599 52.3849C46.9835 50.9801 47.4779 49.7002 48.2505 48.6388L55.9453 37.6502L59.6537 15.08C59.7773 13.7689 60.8898 12.7699 62.1568 12.7699C62.2804 12.7699 62.3731 12.7699 62.4968 12.8011C63.702 12.9572 64.4127 14.081 64.2891 15.4234L62.5895 24.695L63.6711 24.7886L66.576 10.1164C66.6996 8.77406 67.8121 7.80632 69.0791 7.80632C69.2336 7.80632 69.3572 7.80632 69.5117 7.83754C70.8097 8.08728 71.5822 9.30476 71.4586 10.6159L68.6774 25.1945L69.7281 25.2881L72.7256 8.99258C72.8493 7.68145 73.9309 6.71371 75.2288 6.71371ZM75.2288 5.15283C73.7145 5.15283 72.3857 5.9957 71.6749 7.27562C71.1496 6.80736 70.5315 6.46397 69.7899 6.3391C69.5735 6.30788 69.3263 6.27666 69.11 6.27666C67.0086 6.27666 65.3089 7.83754 65.0926 9.92911L64.66 12.1768C64.1346 11.7085 63.4857 11.3963 62.744 11.3027C62.5586 11.2715 62.4041 11.2715 62.2186 11.2715C60.1172 11.2715 58.3867 12.8323 58.1704 14.9239L54.5238 37.0883L47.0453 47.7647C46.0873 49.0758 45.5001 50.6367 45.3765 52.2912C45.1911 54.695 45.9019 57.0051 47.4161 58.8469C48.9304 60.6887 51.0936 61.8126 53.4422 61.9999C53.6894 62.0311 53.9676 62.0311 54.2148 62.0311C56.7488 62.0311 59.1592 60.9385 60.828 59.0342C60.8589 59.003 60.9207 58.9406 60.9516 58.9093L87.9608 33.6856C88.3007 33.3734 90.0313 31.6877 90.0313 29.6898C90.0313 28.5347 89.5677 27.4109 88.7952 26.5992C88.0535 25.85 87.0955 25.4442 86.0757 25.4442C86.0448 25.4442 86.0139 25.4442 85.983 25.4442C84.716 25.4754 83.5726 25.9125 82.7382 26.7553L85.2722 13.7376V13.6752V13.6128C85.4886 11.49 84.0052 9.52328 81.9038 9.17989C81.6875 9.14867 81.4403 9.11745 81.193 9.11745C80.4823 9.11745 79.8024 9.30476 79.2153 9.64815C79.3698 7.46293 77.7628 5.49622 75.6305 5.24648C75.5378 5.15283 75.3833 5.15283 75.2288 5.15283Z" fill="white"/>
</g>
<g clip-path="url(#clip1_772_9853)">
<path d="M53.1574 29.5661L50.5039 25.9692" stroke="white" stroke-width="1.5" stroke-linecap="round" stroke-linejoin="round"/>
<path d="M47.9041 38.7966L51.8049 37.0119" stroke="white" stroke-width="1.5" stroke-linecap="round" stroke-linejoin="round"/>
<path d="M47.625 31.9414L51.7842 33.0538" stroke="white" stroke-width="1.5" stroke-linecap="round" stroke-linejoin="round"/>
</g>
<defs>
<clipPath id="clip0_772_9853">
<rect width="64" height="60" fill="white" transform="translate(26 2)"/>
</clipPath>
<clipPath id="clip1_772_9853">
<rect width="7.34436" height="14.6887" fill="white" transform="translate(46.6875 25.0522) rotate(-0.311636)"/>
</clipPath>
</defs>
</svg>
