<svg width="196" height="49" viewBox="0 0 196 49" fill="none" xmlns="http://www.w3.org/2000/svg">
<g clip-path="url(#clip0_690_714)">
<path d="M86.7224 11.1254C85.9095 11.1254 85.2111 10.8277 84.6157 10.2324C84.0203 9.637 83.7227 8.92713 83.7227 8.12568C83.7227 7.32422 84.0203 6.60291 84.6157 5.99609C85.2111 5.38927 85.9095 5.08014 86.7224 5.08014C87.5582 5.08014 88.2795 5.38927 88.8749 5.99609C89.4702 6.60291 89.7679 7.31277 89.7679 8.12568C89.7679 8.93858 89.4702 9.637 88.8749 10.2324C88.2681 10.8277 87.5582 11.1254 86.7224 11.1254ZM84.2837 31.7458V16.7356C84.2837 15.3846 85.3828 14.2854 86.7338 14.2854C88.0849 14.2854 89.184 15.3846 89.184 16.7356V26.834C89.1955 29.5475 86.9972 31.7458 84.2837 31.7458Z" fill="#FCCF00"/>
<path d="M104.207 14.9724C106.44 14.9724 108.249 16.7814 108.249 19.014V29.9826C108.249 32.4556 107.436 34.3562 105.799 35.65C104.162 36.9552 102.192 37.6078 99.8911 37.6078C98.1622 37.6078 96.6394 37.2758 95.3227 36.6117C94.0061 35.9477 92.9985 34.9745 92.2887 33.6922L92.5405 33.5433C94.132 32.6274 96.0326 32.7075 97.7157 33.4632C98.3683 33.7609 99.1354 33.9097 100.017 33.9097C101.322 33.9097 102.341 33.5662 103.097 32.8792C103.841 32.1923 104.219 31.2191 104.219 29.9597V28.2308C103.005 29.8566 101.288 30.6695 99.0896 30.6695C96.8226 30.6695 94.9335 29.8681 93.3993 28.288C91.8765 26.6966 91.1094 24.7616 91.1094 22.4718C91.1094 20.2048 91.8765 18.2698 93.4107 16.6669C94.9449 15.064 96.8341 14.2625 99.0781 14.2625C101.276 14.2625 102.982 15.0754 104.207 16.7013V14.9724ZM96.502 25.6432C97.3493 26.4676 98.4141 26.8798 99.7193 26.8798C101.025 26.8798 102.101 26.4676 102.937 25.6432C103.784 24.8189 104.207 23.7655 104.207 22.4832C104.207 21.2238 103.784 20.1819 102.937 19.3575C102.089 18.5332 101.025 18.121 99.7193 18.121C98.4141 18.121 97.3378 18.5332 96.502 19.3575C95.6548 20.1819 95.2426 21.2238 95.2426 22.4832C95.2312 23.7655 95.6548 24.8189 96.502 25.6432Z" fill="#2AB5AF"/>
<path d="M153.277 11.1254C152.464 11.1254 151.766 10.8277 151.17 10.2324C150.575 9.637 150.277 8.92713 150.277 8.12568C150.277 7.32422 150.575 6.60291 151.17 5.99609C151.766 5.38927 152.464 5.08014 153.277 5.08014C154.113 5.08014 154.834 5.38927 155.43 5.99609C156.025 6.60291 156.323 7.31277 156.323 8.12568C156.323 8.93858 156.025 9.637 155.43 10.2324C154.834 10.8277 154.124 11.1254 153.277 11.1254ZM150.85 31.7458V16.7356C150.85 15.3846 151.949 14.2854 153.3 14.2854C154.651 14.2854 155.75 15.3846 155.75 16.7356V26.834C155.75 29.5475 153.563 31.7458 150.85 31.7458Z" fill="#FCCF00"/>
<path d="M168.119 13.7588C170.031 13.7588 171.611 14.4 172.859 15.6823C174.107 16.9646 174.725 18.7393 174.725 20.9948V27.2233C174.725 29.7192 172.71 31.7343 170.214 31.7343V21.5558C170.214 20.388 169.905 19.4949 169.264 18.8767C168.634 18.2584 167.798 17.9493 166.745 17.9493C165.577 17.9493 164.65 18.3156 163.951 19.037C163.253 19.7583 162.898 20.846 162.898 22.2886V31.7343C160.402 31.7343 158.387 29.7192 158.387 27.2233V18.7622C158.387 16.2662 160.402 14.2511 162.898 14.2511V16.209C163.997 14.5831 165.737 13.7588 168.119 13.7588Z" fill="#2AB5AF"/>
<path d="M119.927 13.7588C121.839 13.7588 123.419 14.3999 124.667 15.6823C125.915 16.9646 126.534 18.7393 126.534 20.9948V27.2233C126.534 29.7192 124.519 31.7343 122.023 31.7343V21.5558C122.023 20.388 121.713 19.4949 121.072 18.8767C120.443 18.2584 119.607 17.9493 118.553 17.9493C117.386 17.9493 116.458 18.3156 115.76 19.037C115.061 19.7583 114.706 20.846 114.706 22.2886V31.7343C112.21 31.7343 110.195 29.7192 110.195 27.2233V9.51106C110.195 7.01509 112.21 5 114.706 5V14.2511V16.209C115.817 14.5831 117.546 13.7588 119.927 13.7588Z" fill="#2AB5AF"/>
<path d="M191.029 7.25552C193.525 7.25552 195.54 9.27062 195.54 11.7666V27.2233C195.54 29.7192 193.525 31.7343 191.029 31.7343V29.6734C189.701 31.3794 187.812 32.2266 185.362 32.2266C183.003 32.2266 181 31.3336 179.328 29.5475C177.656 27.7614 176.832 25.5745 176.832 22.987C176.832 20.3994 177.668 18.2126 179.328 16.4265C181 14.6404 183.003 13.7473 185.362 13.7473C187.812 13.7473 189.701 14.5946 191.029 16.3005V7.25552ZM182.728 26.5477C183.644 27.4637 184.812 27.9331 186.209 27.9331C187.606 27.9331 188.762 27.4751 189.667 26.5477C190.571 25.6318 191.029 24.4411 191.029 22.9984C191.029 21.5558 190.571 20.3651 189.667 19.4491C188.762 18.5332 187.606 18.0637 186.209 18.0637C184.812 18.0637 183.644 18.5217 182.728 19.4491C181.813 20.3651 181.343 21.5558 181.343 22.9984C181.343 24.4411 181.801 25.6318 182.728 26.5477Z" fill="#2AB5AF"/>
<path d="M65.2095 14.7434H75.1017V9.64846C75.1017 7.14105 77.1397 5.10306 79.6472 5.10306H80.357V31.7343C77.4603 31.7343 75.1017 29.3872 75.1017 26.4791V19.7697H65.2095V31.7458C62.3357 31.7458 60 29.4101 60 26.5363V10.324C60 7.43873 62.3357 5.10306 65.2095 5.10306V14.7434Z" fill="#2AB5AF"/>
<path d="M144.108 10.1293H137.994V15.5106V20.5368V31.7458C135.097 31.7458 132.738 29.3987 132.738 26.4905V5.10306H148.641V5.58393C148.653 8.09135 146.615 10.1293 144.108 10.1293Z" fill="#2AB5AF"/>
<path d="M144.781 19.7697H136.309V14.7434H147.918V16.6326C147.918 18.3614 146.51 19.7697 144.781 19.7697Z" fill="#2AB5AF"/>
<path d="M117.376 37.292C117.292 38.888 117.292 44.66 112.396 47.156C112.672 47.36 112.972 47.636 113.128 47.864C118.096 45.164 118.276 39.176 118.372 37.292H117.376ZM118.336 37.532L117.472 37.616C117.556 38.72 117.892 45.428 122.98 47.864C123.124 47.612 123.4 47.312 123.664 47.108C118.72 44.84 118.372 38.468 118.336 37.532ZM132.172 36.92L132.232 46.7C132.244 46.952 132.148 47.024 131.896 47.036C131.644 47.036 130.756 47.048 129.856 47.036C130 47.288 130.168 47.72 130.216 47.984C131.368 47.972 132.148 47.948 132.568 47.804C133.012 47.636 133.18 47.36 133.168 46.688L133.108 36.908L132.172 36.92ZM127.192 39.26V40.148H137.644V39.26H127.192ZM135.724 40.76C133.876 42.692 130.228 44.42 126.796 45.296C126.952 45.5 127.192 45.896 127.3 46.112C130.828 45.152 134.38 43.412 136.588 41.3L135.724 40.76ZM141.268 39.404V40.244H144.892V39.404H141.268ZM142.912 36.932C142.552 39.176 141.904 42.356 141.424 44.168L142.144 44.612C142.66 42.608 143.344 39.392 143.776 37.016L142.912 36.932ZM141.832 43.748C143.008 44.6 144.376 45.848 145 46.724L145.54 46.016C144.904 45.176 143.5 43.976 142.324 43.148L141.832 43.748ZM144.58 39.404V39.584C144.34 43.628 143.212 46.172 141.364 47.24C141.556 47.42 141.796 47.744 141.916 47.96C143.98 46.628 145.132 44.072 145.408 39.464L144.88 39.38L144.736 39.404H144.58ZM145.252 38.24V39.02H152.272V38.24H145.252ZM145.348 43.7V44.48H152.272V43.7H145.348ZM146.956 40.088V40.796H150.556V40.088H146.956ZM146.512 36.92V42.632H151.06V36.92H150.208V41.888H147.352V36.92H146.512ZM148.324 42.512V47.96H149.2V42.512H148.324ZM148.048 44.06C147.4 45.248 146.128 46.412 144.88 46.964C145.072 47.132 145.36 47.456 145.504 47.672C146.764 47 148.048 45.692 148.756 44.324L148.048 44.06ZM149.464 44.096L148.816 44.36C149.488 45.608 150.736 46.928 151.816 47.612C151.96 47.384 152.248 47.06 152.452 46.904C151.36 46.34 150.124 45.188 149.464 44.096ZM158.176 40.844V41.648H164.236V40.844H158.176ZM157.96 46.676V47.48H164.392V46.676H157.96ZM157.552 43.16V47.972H158.428V43.976H163.984V47.972H164.896V43.16H157.552ZM161.164 37.844C162.292 39.38 164.404 41.072 166.288 42.056C166.444 41.792 166.66 41.48 166.888 41.264C164.968 40.412 162.868 38.744 161.572 36.956H160.66C159.712 38.504 157.708 40.34 155.596 41.408C155.8 41.6 156.04 41.924 156.16 42.128C158.212 41.012 160.18 39.308 161.164 37.844ZM170.848 37.736V38.624H180.304V37.736H170.848ZM170.224 42.836V43.736H180.988V42.836H170.224ZM171.688 39.452C172.144 40.34 172.612 41.504 172.78 42.212L173.644 41.924C173.476 41.216 172.984 40.076 172.492 39.2L171.688 39.452ZM178.648 39.152C178.36 40.016 177.796 41.252 177.352 42.008L178.12 42.26C178.588 41.54 179.152 40.388 179.608 39.416L178.648 39.152ZM175.108 38.084V47.96H176.032V38.084H175.108ZM186.58 46.556V47.432H193.336V46.556H186.58ZM186.172 42.848V47.96H187.084V43.712H192.868V47.936H193.816V42.848H186.172ZM188.584 36.884C188.032 38.168 187.048 39.932 186.256 41L187.036 41.336C187.84 40.28 188.848 38.624 189.568 37.232L188.584 36.884ZM191.464 38.828C192.7 39.836 194.068 41.288 194.668 42.284L195.436 41.684C194.812 40.688 193.396 39.272 192.172 38.3L191.464 38.828ZM184.756 40.604L184.816 41.528C187.108 41.432 190.732 41.276 194.104 41.096L194.152 40.232C190.732 40.388 187.036 40.544 184.756 40.604Z" fill="#6F6F6F"/>
</g>
<g clip-path="url(#clip1_690_714)">
<path d="M28.3468 42.4058C26.9732 42.4058 24.8754 41.9563 22.5279 39.8585L1.64963 23.5005L1.62465 23.4755C0.900407 22.8012 0.525798 21.8273 0.650667 20.8533C0.825485 19.2799 2.02424 18.1561 3.57262 18.0812C3.62257 18.0812 3.67252 18.0812 3.69749 18.0812C4.37179 18.0812 4.97117 18.281 5.52059 18.6805C6.16992 19.1301 6.86919 19.6046 7.51851 20.0541L7.66836 6.29344C7.66836 4.8949 8.79219 3.7461 10.1907 3.7461C10.2407 3.7461 10.2657 3.7461 10.3156 3.7461C11.1647 3.77107 11.889 4.2206 12.3385 4.86993L12.3635 3.12175C12.3635 1.72321 13.4873 0.574402 14.8609 0.574402C14.9358 0.574402 15.0107 0.574402 15.0856 0.574402C16.3843 0.674298 17.4332 1.77315 17.4332 3.09677V4.02081C17.8827 3.32154 18.6819 2.84703 19.556 2.84703C20.9545 2.84703 22.0783 3.97086 22.0783 5.36941L22.0034 8.7409C22.378 7.79188 23.2771 7.11759 24.326 7.11759C24.4009 7.11759 24.4759 7.11759 24.5508 7.11759C25.8494 7.21748 26.8983 8.31634 26.8983 9.63996L26.4488 22.2518L31.5685 32.1165C34.5154 36.6368 33.5914 39.3091 32.2927 40.7575C31.3687 41.8065 29.9452 42.4058 28.3468 42.4058Z" fill="#FCCF00"/>
<g clip-path="url(#clip2_690_714)">
<path d="M21.2646 22.6853L19.4551 19.8693" stroke="white" stroke-width="1.5" stroke-linecap="round" stroke-linejoin="round"/>
<path d="M16.8948 29.33L19.896 28.1844" stroke="white" stroke-width="1.5" stroke-linecap="round" stroke-linejoin="round"/>
<path d="M17.0156 24.1937L20.0703 25.2255" stroke="white" stroke-width="1.5" stroke-linecap="round" stroke-linejoin="round"/>
</g>
<path d="M14.8352 1.2487C14.8852 1.2487 14.9351 1.2487 15.01 1.2487C16.009 1.32362 16.7832 2.14776 16.7832 3.14672L16.6333 16.1332L17.4325 16.1582L17.6073 5.4693C17.6073 4.39542 18.4564 3.52133 19.5303 3.52133C20.5792 3.52133 21.4283 4.37045 21.4283 5.41936L21.2535 16.2081L22.3274 16.2331L22.4523 9.66493C22.4523 8.59105 23.2764 7.74194 24.3253 7.74194C24.3753 7.74194 24.4502 7.74194 24.5001 7.74194C25.4991 7.81686 26.2733 8.641 26.2733 9.63996L25.8238 22.4017L31.0433 32.4412C33.8404 36.7118 32.9663 39.1093 31.8425 40.358C31.0933 41.1821 29.8696 41.7815 28.3461 41.7815C26.7478 41.7815 24.8498 41.1322 22.9268 39.384L2.04853 23.026C1.44915 22.4766 1.17444 21.7024 1.27434 20.9532C1.39921 19.8293 2.22335 18.7804 3.59692 18.7305C3.64686 18.7305 3.67184 18.7305 3.69681 18.7305C4.24624 18.7305 4.74572 18.9053 5.17028 19.205C6.26913 19.9542 7.31804 20.6785 8.14218 21.2529L8.29203 6.31842C8.29203 5.26951 9.11617 4.39542 10.19 4.39542C10.215 4.39542 10.24 4.39542 10.265 4.39542C11.2889 4.4204 12.113 5.26951 12.113 6.29344L11.9882 16.0333L12.8123 16.0583L12.9622 3.1717C12.9622 2.12279 13.8113 1.2487 14.8352 1.2487ZM14.8352 0C13.112 0 11.7135 1.42352 11.7135 3.1717V3.54631C11.2889 3.32154 10.8144 3.1717 10.3149 3.1717C10.265 3.1717 10.215 3.1717 10.19 3.1717C8.46684 3.1717 7.0683 4.59521 7.04333 6.34339L6.91846 18.9303C6.56882 18.7055 6.21919 18.4558 5.89452 18.231C5.22023 17.7315 4.49598 17.4818 3.69681 17.4818C3.64686 17.4818 3.59692 17.4818 3.52199 17.4818C1.69889 17.5567 0.250402 18.9303 0.0256366 20.8033C-0.124207 21.9521 0.30035 23.1259 1.19941 23.9501L1.22439 23.975L1.27434 24L22.1276 40.333C24.625 42.5557 26.8976 43.0052 28.3461 43.0052C30.1193 43.0052 31.7176 42.3309 32.7665 41.1821C33.6656 40.1831 34.1401 38.9095 34.1651 37.5359C34.1651 35.8377 33.4908 33.9147 32.1172 31.8169L27.0725 22.127L27.522 9.68991V9.66493V9.63996C27.522 7.99168 26.2483 6.61811 24.6 6.49324C24.5001 6.49324 24.4252 6.49324 24.3253 6.49324C23.701 6.49324 23.1266 6.66805 22.6521 6.99272L22.677 5.44433C22.677 3.72112 21.2535 2.29761 19.5303 2.29761C18.9809 2.29761 18.4564 2.44745 18.0069 2.69719C17.7821 1.2487 16.5834 0.12487 15.1099 0C15.01 0 14.9351 0 14.8352 0Z" fill="white"/>
<path d="M10.6651 16.7825C10.5901 16.7825 10.5402 16.7326 10.5152 16.6826C10.4903 16.6077 10.5152 16.5328 10.5901 16.4828C10.6151 16.4579 14.1864 14.8346 17.408 14.9594C20.6547 15.1093 23.5766 16.4329 23.6266 16.4579C23.7015 16.4828 23.7265 16.5578 23.7015 16.6327C23.6765 16.7076 23.6016 16.7576 23.5267 16.7326C23.4517 16.7326 15.6848 15.5838 10.6651 16.7326C10.69 16.7825 10.6651 16.7825 10.6651 16.7825Z" fill="white"/>
<path d="M22.7751 47.3756C22.5753 47.3756 22.3755 47.3756 22.2007 47.3507C18.6044 47.051 15.9322 43.8793 16.2319 40.2581C16.3318 39.0593 16.7813 37.9105 17.4806 36.9365L23.5992 28.2705L26.5712 10.3892C26.696 9.01559 27.8448 7.99166 29.2184 7.99166C29.3433 7.99166 29.4432 7.99166 29.568 8.01664C30.542 8.14151 31.2413 8.84078 31.491 9.78979L32.1653 6.39333C32.2902 5.01976 33.414 3.99582 34.8126 3.99582C34.9624 3.99582 35.1123 4.0208 35.2621 4.04577C36.1362 4.22059 36.7855 4.77002 37.1351 5.51924V5.49426C37.26 4.17064 38.4338 3.12173 39.7824 3.12173C39.8823 3.12173 39.9822 3.12173 40.0821 3.14671C41.5056 3.29655 42.5545 4.62017 42.4296 6.04369V6.06866L41.3308 11.9376L42.0051 8.59104C42.3547 7.14255 43.3537 6.24348 44.6273 6.24348C44.7772 6.24348 44.927 6.26846 45.1018 6.29343C46.4504 6.5182 47.4244 7.79187 47.2996 9.16544V9.19041L44.8521 21.5775C45.2767 21.2029 45.7512 20.7284 46.2257 20.2539C46.9499 19.5296 47.849 19.3548 48.4733 19.3548H48.5233C49.1726 19.3548 49.797 19.6295 50.2715 20.104C50.7959 20.6285 51.0956 21.3777 51.0956 22.1269C51.0956 23.5005 49.772 24.7242 49.6221 24.8741L27.7699 45.078C27.7449 45.103 27.72 45.153 27.67 45.1779C26.4463 46.5765 24.6482 47.3756 22.7751 47.3756Z" fill="#2AB5AF"/>
<path d="M39.783 3.77107C39.8579 3.77107 39.9328 3.77107 40.0077 3.79604C41.1066 3.92091 41.9058 4.91987 41.8059 6.01873L39.3834 19.0302L40.5072 19.1301L42.63 8.74089C42.9047 7.61706 43.6539 6.89282 44.6529 6.89282C44.7778 6.89282 44.9026 6.89282 45.0025 6.91779C46.0514 7.09261 46.7757 8.06659 46.6758 9.1155L43.8787 23.3007C43.8787 23.3007 45.2023 22.1769 46.6758 20.7034C47.2002 20.179 47.8745 20.0042 48.4989 19.9792C48.5239 19.9792 48.5239 19.9792 48.5488 19.9792C49.5977 19.9792 50.4968 20.9532 50.4968 22.1269C50.4968 23.076 49.5977 24.0749 49.2231 24.3996L27.296 44.6785C27.296 44.7034 27.271 44.7034 27.271 44.7034C26.1721 45.9771 24.5488 46.7763 22.7757 46.7763C22.6009 46.7763 22.4261 46.7763 22.2512 46.7513C18.9796 46.4516 16.5821 43.5796 16.8569 40.308C16.9567 39.1842 17.3563 38.1602 17.9807 37.3111L24.1992 28.5203L27.1961 10.4641C27.296 9.41519 28.195 8.61602 29.219 8.61602C29.3189 8.61602 29.3938 8.61602 29.4937 8.641C30.4677 8.76587 31.0421 9.66493 30.9422 10.7388L29.5686 18.1561L30.4427 18.231L32.7903 6.49323C32.8902 5.41935 33.7892 4.64516 34.8131 4.64516C34.938 4.64516 35.0379 4.64516 35.1628 4.67013C36.2117 4.86992 36.836 5.84391 36.7361 6.89282L34.4885 18.5557L35.3376 18.6306L37.7601 5.59417C37.86 4.54526 38.7341 3.77107 39.783 3.77107ZM39.783 2.52237C38.5592 2.52237 37.4854 3.19667 36.911 4.2206C36.4864 3.84599 35.9869 3.57128 35.3876 3.47138C35.2127 3.44641 35.0129 3.42143 34.8381 3.42143C33.1399 3.42143 31.7663 4.67013 31.5915 6.34339L31.2419 8.14152C30.8173 7.76691 30.2929 7.51717 29.6935 7.44224C29.5436 7.41727 29.4188 7.41727 29.2689 7.41727C27.5707 7.41727 26.1721 8.66597 25.9973 10.3392L23.0504 28.0708L17.0067 36.6119C16.2325 37.6608 15.758 38.9095 15.6581 40.2331C15.5083 42.1561 16.0827 44.0042 17.3064 45.4776C18.5301 46.9511 20.2783 47.8502 22.1763 48C22.3761 48.025 22.6009 48.025 22.8007 48.025C24.8485 48.025 26.7965 47.1509 28.1451 45.6275C28.1701 45.6025 28.22 45.5525 28.245 45.5276L50.0723 25.3486C50.347 25.0989 51.7455 23.7503 51.7455 22.1519C51.7455 21.2279 51.3709 20.3288 50.7466 19.6795C50.1472 19.0801 49.373 18.7555 48.5488 18.7555C48.5239 18.7555 48.4989 18.7555 48.4739 18.7555C47.45 18.7804 46.526 19.1301 45.8517 19.8044L47.8995 9.39021V9.34027V9.29032C48.0743 7.59209 46.8756 6.01873 45.1774 5.74401C45.0025 5.71904 44.8027 5.69407 44.603 5.69407C44.0286 5.69407 43.4791 5.84391 43.0046 6.11862C43.1295 4.37044 41.8308 2.79708 40.1076 2.59729C40.0327 2.52237 39.9078 2.52237 39.783 2.52237Z" fill="white"/>
</g>
<defs>
<clipPath id="clip0_690_714">
<rect width="136" height="44" fill="white" transform="translate(60 5)"/>
</clipPath>
<clipPath id="clip1_690_714">
<rect width="51.7211" height="48" fill="white"/>
</clipPath>
<clipPath id="clip2_690_714">
<rect width="5.5" height="11" fill="white" transform="translate(16.6484 19) rotate(3.3804)"/>
</clipPath>
</defs>
</svg>
